<svg xmlns="http://www.w3.org/2000/svg" width="1024" height="1024" viewBox="0 0 1024 1024">
<g>
<path d="M 740.75,549.10 L 740.14,551.21 L 739.92,552.07 L 739.53,553.68 L 739.41,554.32 L 739.22,555.52 L 739.20,556.01 L 739.21,556.92 L 739.29,557.30 L 739.49,558.03 L 739.67,558.37 L 740.55,559.69 L 741.27,560.52 L 742.71,561.92 L 743.76,562.57 L 744.45,562.79 L 745.97,563.19 L 747.03,563.33 L 748.15,563.46 L 748.81,563.52 L 750.21,563.64 L 751.02,563.70 L 753.96,563.93 L 755.71,564.10 L 756.42,564.19 L 757.73,564.35 L 758.16,564.42 L 758.86,564.56 L 758.92,564.62 L 759.77,565.11 L 760.36,565.10 L 761.61,564.93 L 762.34,564.60 L 763.85,563.81 L 764.66,563.21 L 766.29,561.86 L 767.11,561.00 L 769.90,557.33 L 770.72,555.85 L 771.10,554.99 L 771.87,553.18 L 772.25,552.11 L 773.01,549.86 L 773.20,549.22 L 772.19,552.78 L 768.63,563.50 L 766.77,568.83 L 762.58,579.30 L 760.41,584.50 L 755.61,594.66 L 753.14,599.69 L 747.78,609.46 L 745.02,614.29 L 739.12,623.61 L 729.68,636.98 L 729.18,637.65 L 727.97,639.16 L 727.34,639.95 L 725.91,641.66 L 724.43,643.42 L 720.95,647.37 L 719.15,649.39 L 715.26,653.63 L 713.29,655.76 L 709.30,659.97 L 707.32,662.05 L 703.52,665.92 L 701.67,667.78 L 698.38,670.99 L 697.60,671.73 L 696.19,673.04 L 695.51,673.66 L 694.33,674.70 L 693.77,675.18 L 692.86,675.90 L 691.83,676.59 L 691.46,676.78 L 690.42,677.14 L 689.86,677.30 L 688.59,677.58 L 684.63,678.00 L 683.62,678.00 L 681.73,677.68 L 680.81,677.48 L 679.11,676.77 L 678.28,676.36 L 676.79,675.29 L 676.07,674.71 L 674.80,673.31 L 674.20,672.56 L 673.19,670.86 L 672.72,669.97 L 672.00,667.99 L 671.67,666.96 L 671.26,664.74 L 671.00,661.17 L 671.00,660.38 L 671.10,658.94 L 671.17,658.24 L 671.49,656.89 L 671.68,656.21 L 672.31,654.83 L 672.67,654.12 L 673.69,652.56 L 674.27,651.74 L 675.78,649.88 L 676.61,648.90 L 678.71,646.61 L 679.84,645.40 L 682.61,642.55 L 683.35,641.80 L 684.97,640.16 L 687.62,637.50 L 691.98,633.15 L 699.99,624.14 L 703.87,619.59 L 710.95,610.12 L 714.38,605.32 L 720.58,595.33 L 723.57,590.26 L 728.90,579.67 L 730.18,576.99 L 732.59,571.49 L 733.77,568.72 L 735.97,563.06 L 737.05,560.20 L 739.05,554.36 L 740.03,551.42 L 741.80,545.51 M 264.81,482.84 L 264.91,486.47 L 265.38,493.74 L 265.66,497.37 L 266.48,504.62 L 266.94,508.24 L 268.12,515.47 L 268.75,519.09 L 270.29,526.29 L 271.10,529.89 L 272.99,537.06 L 273.97,540.64 L 276.22,547.78 L 277.38,551.34 L 279.98,558.43 L 284.27,569.00 L 285.82,572.58 L 288.89,579.19 L 290.43,582.41 L 293.57,588.44 L 295.16,591.40 L 298.48,597.01 L 300.18,599.78 L 303.80,605.13 L 305.66,607.79 L 309.69,613.05 L 311.76,615.68 L 316.31,621.00 L 318.66,623.69 L 323.85,629.24 L 332.46,638.00 L 334.34,639.86 L 337.88,643.45 L 339.59,645.21 L 342.53,648.33 L 343.22,649.06 L 344.42,650.38 L 344.99,651.01 L 345.93,652.09 L 346.36,652.59 L 346.99,653.38 L 347.56,654.20 L 348.05,655.12 L 348.64,657.63 L 348.87,658.95 L 348.94,661.89 L 348.91,663.37 L 348.47,666.25 L 347.25,669.98 L 346.83,670.82 L 345.75,672.33 L 345.17,673.06 L 343.84,674.33 L 343.15,674.93 L 341.63,675.92 L 340.85,676.38 L 339.20,677.08 L 338.37,677.40 L 336.66,677.78 L 335.80,677.93 L 334.09,677.97 L 333.24,677.95 L 331.60,677.62 L 330.79,677.41 L 329.28,676.70 L 328.76,676.41 L 327.37,675.42 L 326.62,674.86 L 324.82,673.38 L 323.88,672.59 L 321.75,670.70 L 320.66,669.71 L 318.29,667.50 L 315.88,665.22 L 310.69,660.00 L 303.02,651.83 L 298.96,647.32 L 291.27,637.70 L 287.50,632.80 L 280.43,622.48 L 276.97,617.25 L 270.57,606.35 L 267.46,600.84 L 261.79,589.48 L 259.05,583.75 L 254.16,572.03 L 251.82,566.14 L 247.77,554.19 L 245.85,548.20 L 242.69,536.12 L 239.01,518.00 L 238.02,511.92 L 236.68,499.66 L 236.12,493.52 L 235.73,483.67 L 235.86,483.81 L 236.65,484.29 L 237.19,484.54 L 239.66,485.51 L 241.13,485.87 L 243.88,486.61 L 246.14,487.27 L 247.39,487.65 L 252.58,489.29 L 254.88,490.09 L 258.19,491.22 L 260.19,491.88 L 261.01,492.15 L 262.53,492.62 L 263.04,492.77 L 263.88,493.00 L 263.98,493.00 L 264.12,492.65 L 264.21,492.08 L 264.26,491.64 L 264.34,490.67 L 264.38,490.04 L 264.46,488.71 L 264.50,487.93 L 264.62,484.51 L 264.67,482.45 L 264.74,478.30 M 744.11,537.00 L 742.62,542.74 L 741.89,545.22 L 741.88,545.25 L 742.72,542.35 L 744.16,536.78 M 782.22,502.66 L 782.02,504.89 L 781.58,509.02 L 780.86,514.50 L 780.03,520.01 L 777.82,530.99 L 776.63,536.47 L 774.80,543.32 L 775.47,540.64 L 775.94,538.63 L 776.90,534.42 L 777.43,532.00 L 778.61,526.49 L 779.29,523.17 L 779.59,521.62 L 780.65,515.70 L 781.06,512.78 L 781.45,509.84 L 781.62,508.30 L 781.96,505.14 L 782.12,503.43 L 782.43,499.89 L 782.53,498.70 M 751.21,490.93 L 751.10,493.69 L 750.99,496.38 L 750.92,497.63 L 750.78,500.05 L 750.70,501.14 L 750.54,503.23 L 750.45,504.13 L 750.25,505.82 L 750.15,506.50 L 749.63,509.56 L 750.13,506.50 L 750.23,505.76 L 750.43,503.97 L 750.53,503.03 L 750.70,500.87 L 750.78,499.75 L 750.92,497.29 L 750.99,496.03 L 751.11,493.31 L 751.21,490.80 M 782.95,493.35 L 782.61,497.69 L 782.90,493.82 L 782.98,492.73 M 783.53,463.00 L 783.62,464.57 L 783.69,468.27 L 783.71,470.20 L 783.68,474.48 L 783.65,476.68 L 783.61,478.01 L 783.67,473.99 L 783.61,470.40 L 783.42,463.18 L 783.22,459.55 L 783.03,456.70 M 243.58,409.62 L 241.88,416.96 L 241.12,420.76 L 239.63,428.47 L 238.96,432.50 L 238.57,435.07 L 238.31,437.03 L 238.17,438.11 L 237.64,442.69 L 237.38,445.26 L 236.87,450.54 L 236.63,453.28 L 236.17,458.81 L 235.97,461.51 L 235.81,463.74 L 235.84,462.71 L 236.12,456.55 L 237.31,444.26 L 238.01,438.13 L 240.03,425.96 L 241.15,419.89 L 243.99,407.87 L 244.35,406.46 M 272.57,417.62 L 271.61,421.21 L 269.95,428.42 L 269.16,432.02 L 267.85,439.26 L 267.24,442.88 L 266.29,450.13 L 265.86,453.76 L 265.26,461.02 L 265.12,463.08 L 265.13,462.86 L 265.72,454.43 L 266.19,450.27 L 267.26,441.97 L 267.98,437.83 L 269.55,429.57 L 270.52,425.42 L 272.61,417.09 L 273.85,412.88 L 274.44,410.98 M 749.36,439.55 L 750.16,444.50 L 750.46,446.78 L 750.55,447.72 L 750.46,446.82 L 750.16,444.50 L 749.36,439.56 L 748.17,433.43 M 275.74,406.87 L 275.08,408.90 L 276.48,404.41 L 277.88,400.41 M 244.54,405.73 L 245.51,401.89 L 246.26,399.49 M 724.65,360.92 L 726.45,364.76 L 729.99,372.55 L 731.63,376.61 L 734.85,384.82 L 736.34,389.07 L 739.23,397.68 L 739.24,397.70 L 736.35,389.12 L 734.87,384.86 L 731.65,376.64 L 730.00,372.58 L 726.46,364.78 L 724.65,360.93 L 720.81,353.58 L 714.71,343.07 L 720.81,353.57 M 279.43,396.18 L 279.18,396.86 L 281.19,391.36 L 283.00,386.88 L 283.66,385.30 M 286.76,377.86 L 286.78,377.83 L 287.47,376.30 M 288.25,374.57 L 288.89,373.15 L 289.12,372.69 M 262.24,358.14 L 258.99,364.95 L 257.51,368.33 L 255.22,373.71 L 255.58,372.72 L 256.74,369.89 L 259.43,363.91 L 260.84,360.88 L 263.97,354.61 L 265.58,351.45 L 266.75,349.30 M 302.99,346.75 L 301.16,349.70 L 300.91,350.14 L 301.85,348.47 L 304.92,343.67 L 305.70,342.49 M 334.21,305.85 L 321.90,320.19 L 319.48,323.23 L 314.98,329.16 L 312.79,332.12 L 308.71,337.96 L 308.08,338.88 L 311.23,334.13 L 314.64,329.49 L 321.62,320.31 L 325.33,315.89 L 332.90,307.17 L 336.87,303.01 L 339.06,300.79 M 317.27,279.40 L 309.63,287.41 L 305.98,291.60 L 298.78,300.11 L 295.35,304.55 L 288.61,313.54 L 286.77,316.23 L 288.54,313.62 L 292.63,307.94 L 298.70,300.02 L 302.28,295.55 L 310.01,286.88 L 313.96,282.59 L 318.72,277.92 M 347.41,292.60 L 344.25,295.54 L 344.94,294.84 L 349.14,290.99 L 353.61,287.04 M 361.45,280.47 L 357.05,283.99 L 357.63,283.47 L 362.01,279.99 L 370.84,273.22 L 371.11,273.04 M 323.31,273.44 L 326.64,270.27 L 327.76,269.29 M 425.15,243.87 L 425.23,243.84 L 428.28,242.71 L 432.20,241.31 M 368.71,238.40 L 369.43,237.93 L 370.31,237.41 M 442.69,237.91 L 443.67,237.60 L 446.79,236.74 L 453.04,235.08 L 456.19,234.35 L 457.35,234.10 M 544.56,230.87 L 548.09,231.42 L 555.08,232.60 L 558.64,233.37 L 562.24,234.16 L 563.43,234.44 L 554.12,232.54 L 548.81,231.55 L 539.21,230.26 M 397.31,222.86 L 387.45,227.75 L 382.53,230.42 L 375.70,234.26 L 379.71,231.91 L 384.89,228.99 L 395.45,223.68 L 397.38,222.82 M 458.53,233.84 L 462.50,232.97 L 465.67,232.37 L 466.16,232.29 M 473.42,231.09 L 470.20,231.58 L 472.04,231.25 L 475.25,230.79 L 481.67,229.94 L 483.45,229.76 M 489.42,229.25 L 485.31,229.58 L 491.38,229.04 L 494.64,228.85 L 498.09,228.68 M 512.16,228.47 L 507.30,228.47 L 511.03,228.44 M 567.90,235.53 L 569.90,236.05 L 567.90,235.53 Z" fill="rgba(84,97,214,1)"/>
<path d="M 681.78,389.60 L 682.17,390.62 L 683.05,392.72 L 683.63,393.87 L 684.86,396.23 L 685.60,397.52 L 687.64,401.13 L 689.08,403.75 L 689.79,405.07 L 691.17,407.66 L 691.78,408.85 L 692.94,411.11 L 693.38,412.00 L 694.68,414.54 L 695.51,416.04 L 695.87,416.64 L 696.56,417.74 L 696.83,418.10 L 697.29,418.65 L 697.41,418.68 L 697.98,419.21 L 698.55,419.97 L 698.90,420.51 L 699.63,421.70 L 700.03,422.40 L 700.84,423.88 L 701.25,424.68 L 703.24,428.24 L 704.45,429.99 L 705.04,430.60 L 706.24,431.67 L 706.88,432.00 L 708.21,432.53 L 708.97,432.66 L 709.69,432.94 L 710.25,433.31 L 710.55,433.56 L 711.77,434.71 L 712.28,435.41 L 713.29,436.60 L 713.95,437.14 L 714.30,437.29 L 715.01,437.52 L 715.43,437.53 L 716.30,437.49 L 716.83,437.38 L 719.34,437.44 L 720.72,438.14 L 721.37,438.85 L 722.38,439.81 L 722.91,440.04 L 723.98,440.35 L 724.54,440.25 L 725.67,439.91 L 726.28,439.49 L 727.52,438.49 L 728.18,437.75 L 729.17,436.40 L 729.49,435.48 L 729.48,434.84 L 729.35,433.40 L 729.11,432.33 L 728.84,431.18 L 728.66,430.49 L 728.27,429.02 L 728.04,428.14 L 727.36,424.67 L 727.28,423.68 L 727.28,423.30 L 727.32,422.62 L 727.39,422.43 L 727.46,421.10 L 727.29,419.76 L 727.10,418.90 L 726.67,417.09 L 726.38,416.05 L 725.75,413.91 L 725.37,412.76 L 723.73,408.05 L 722.79,405.77 L 721.99,403.89 L 722.60,405.25 L 723.97,408.63 L 724.65,410.38 L 726.01,414.20 L 726.68,416.16 L 727.99,420.33 L 729.29,424.57 L 731.64,433.73 L 734.61,447.81 L 734.75,448.54 L 734.99,450.22 L 735.10,451.09 L 735.31,453.04 L 735.52,455.04 L 735.84,459.68 L 735.99,462.08 L 736.19,467.28 L 736.28,469.93 L 736.36,475.39 L 736.38,478.13 L 736.34,483.57 L 736.30,486.26 L 736.13,491.36 L 736.03,493.84 L 735.73,498.32 L 735.13,504.00 L 734.93,505.39 L 734.43,508.37 L 734.17,509.90 L 733.55,513.10 L 732.91,516.35 L 731.35,523.21 L 730.54,526.65 L 728.73,533.46 L 725.89,543.00 L 725.44,544.39 L 724.24,547.65 L 723.59,549.34 L 722.08,553.04 L 720.50,556.80 L 716.86,564.75 L 715.94,566.69 L 714.10,570.42 L 713.19,572.23 L 711.46,575.53 L 710.61,577.11 L 709.07,579.76 L 707.11,582.78 L 706.41,583.73 L 704.98,585.37 L 704.26,586.15 L 702.80,587.47 L 702.06,588.08 L 700.56,589.06 L 699.80,589.51 L 698.26,590.16 L 697.49,590.45 L 695.91,590.76 L 695.11,590.88 L 693.50,590.87 L 692.68,590.82 L 691.03,590.48 L 690.20,590.26 L 688.50,589.59 L 687.08,588.96 L 684.85,587.47 L 683.83,586.68 L 682.36,584.80 L 681.72,583.80 L 680.95,581.42 L 680.50,577.17 L 680.50,575.90 L 680.68,573.83 L 680.81,572.82 L 681.45,570.76 L 681.65,570.22 L 682.18,569.01 L 682.47,568.38 L 683.21,566.94 L 683.60,566.18 L 684.56,564.42 L 686.31,561.34 L 688.16,558.09 L 691.51,551.57 L 693.13,548.31 L 695.99,541.76 L 697.36,538.48 L 699.75,531.87 L 700.89,528.55 L 702.81,521.83 L 703.71,518.46 L 705.18,511.63 L 705.85,508.19 L 706.86,501.20 L 707.31,497.68 L 707.88,490.50 L 708.23,479.50 L 708.24,477.41 L 708.19,473.55 L 708.16,471.66 L 708.02,468.12 L 707.86,464.64 L 707.22,458.28 L 706.84,455.15 L 705.70,448.93 L 703.34,439.00 L 702.99,437.69 L 702.32,435.08 L 701.99,433.79 L 701.42,431.43 L 701.16,430.30 L 700.75,428.45 L 700.39,426.56 L 700.28,425.75 L 699.86,424.32 L 699.13,423.06 L 699.01,422.98 L 698.52,422.25 L 698.24,421.80 L 697.50,420.46 L 697.11,419.73 L 696.21,417.96 L 694.79,415.00 L 694.32,413.97 L 693.04,411.38 L 692.36,410.03 L 690.82,407.07 L 690.04,405.58 L 688.44,402.61 L 686.16,398.54 L 685.63,397.62 L 684.72,395.99 L 684.28,395.21 L 683.56,393.83 L 682.88,392.51 L 681.98,390.38 L 681.61,389.36 L 681.25,387.76 M 733.66,381.51 L 734.84,384.63 L 737.13,390.91 L 738.17,394.09 L 740.20,400.47 L 741.12,403.70 L 742.08,406.79 L 742.69,408.52 L 742.97,409.16 L 743.49,410.28 L 743.69,410.56 L 744.05,410.92 L 744.14,410.77 L 744.55,410.78 L 744.91,411.24 L 745.12,411.66 L 745.57,412.61 L 745.80,413.24 L 746.28,414.59 L 746.51,415.37 L 748.52,420.31 L 749.35,421.81 L 749.78,422.45 L 750.64,423.63 L 751.05,424.05 L 752.82,425.67 L 753.94,426.36 L 754.63,426.56 L 756.16,426.86 L 757.25,426.93 L 758.42,426.98 L 759.11,426.99 L 760.59,427.00 L 761.47,427.00 L 764.92,427.07 L 766.65,427.19 L 767.25,427.29 L 768.30,427.52 L 768.58,427.68 L 769.00,428.03 L 769.00,428.26 L 769.62,429.47 L 770.50,430.37 L 771.04,430.76 L 772.13,431.48 L 772.60,431.66 L 773.46,431.87 L 773.66,431.67 L 773.97,430.92 L 774.23,429.97 L 774.37,429.33 L 774.65,427.94 L 774.80,427.13 L 775.10,425.45 L 775.25,424.55 L 775.80,420.85 L 776.00,419.14 L 776.19,417.48 L 776.25,416.76 L 776.35,415.40 L 776.35,414.89 L 776.06,411.20 L 775.80,409.69 L 775.94,410.22 L 777.49,416.90 L 778.23,420.28 L 779.52,427.22 L 780.14,430.72 L 781.16,437.85 L 781.64,441.43 L 782.40,448.66 L 782.74,452.29 L 783.22,459.55 L 783.42,463.18 L 783.61,470.40 L 783.67,473.99 L 783.56,481.09 L 783.07,491.50 L 782.90,493.82 L 782.59,497.91 L 782.43,499.89 L 782.12,503.43 L 781.96,505.14 L 781.62,508.30 L 781.45,509.84 L 781.06,512.78 L 780.65,515.70 L 779.59,521.62 L 779.29,523.17 L 778.61,526.49 L 777.43,532.00 L 776.90,534.42 L 775.94,538.63 L 775.47,540.64 L 774.61,544.09 L 774.19,545.73 L 773.40,548.53 L 773.01,549.86 L 772.25,552.11 L 771.87,553.18 L 771.10,554.99 L 770.72,555.85 L 769.90,557.33 L 767.11,561.00 L 766.29,561.86 L 764.66,563.21 L 763.85,563.81 L 762.34,564.60 L 761.61,564.93 L 760.36,565.10 L 759.77,565.11 L 758.92,564.62 L 758.86,564.56 L 758.16,564.42 L 757.73,564.35 L 756.42,564.19 L 755.71,564.10 L 753.96,563.93 L 751.02,563.70 L 750.21,563.64 L 748.81,563.52 L 748.15,563.46 L 747.03,563.33 L 745.97,563.19 L 744.45,562.79 L 743.76,562.57 L 742.71,561.92 L 741.27,560.52 L 740.55,559.69 L 739.67,558.37 L 739.49,558.03 L 739.29,557.30 L 739.21,556.92 L 739.20,556.01 L 739.22,555.52 L 739.41,554.32 L 739.53,553.68 L 739.92,552.07 L 740.14,551.21 L 740.75,549.10 L 741.89,545.22 L 742.62,542.74 L 744.11,537.00 L 744.85,534.02 L 746.29,527.51 L 747.00,524.19 L 748.33,517.20 L 750.15,506.50 L 750.25,505.82 L 750.45,504.13 L 750.54,503.23 L 750.70,501.14 L 750.78,500.05 L 750.92,497.63 L 750.99,496.38 L 751.10,493.69 L 751.21,490.93 L 751.34,484.84 L 751.39,481.73 L 751.42,475.30 L 751.42,472.09 L 751.34,465.80 L 751.29,462.71 L 751.11,457.02 L 751.06,455.66 L 750.93,453.13 L 750.87,451.90 L 750.72,449.69 L 750.64,448.62 L 750.46,446.78 L 750.16,444.50 L 749.36,439.55 L 747.48,429.88 L 746.50,425.08 L 744.27,415.74 L 743.12,411.12 L 740.56,402.13 L 739.23,397.68 L 736.34,389.07 L 734.85,384.82 L 731.63,376.61 L 731.44,376.12 M 669.30,414.26 L 670.34,414.42 L 672.39,415.10 L 673.39,415.50 L 675.27,416.67 L 677.74,418.99 L 678.40,419.80 L 679.72,421.74 L 680.37,422.76 L 681.67,425.10 L 682.31,426.31 L 683.57,429.01 L 684.19,430.40 L 685.40,433.43 L 686.00,434.98 L 687.15,438.30 L 687.72,440.00 L 688.79,443.58 L 691.66,455.13 L 691.93,456.38 L 692.37,459.54 L 692.58,461.20 L 692.91,464.99 L 693.05,466.94 L 693.26,471.13 L 693.34,473.25 L 693.42,477.61 L 693.44,479.79 L 693.39,484.08 L 693.35,486.19 L 693.17,490.17 L 693.06,492.11 L 692.75,495.55 L 692.13,499.86 L 691.68,502.15 L 690.42,507.39 L 689.75,510.05 L 688.20,515.53 L 687.41,518.23 L 685.77,523.27 L 685.37,524.47 L 684.58,526.68 L 683.44,529.60 L 682.91,530.86 L 681.78,533.10 L 681.19,534.18 L 679.93,536.07 L 679.29,536.96 L 677.91,538.49 L 677.20,539.20 L 675.71,540.36 L 674.95,540.89 L 673.34,541.69 L 672.52,542.04 L 670.80,542.46 L 669.93,542.62 L 668.10,542.68 L 667.18,542.66 L 665.25,542.34 L 664.79,542.24 L 663.80,541.82 L 663.30,541.58 L 662.27,540.92 L 661.24,540.21 L 659.26,538.28 L 658.32,537.26 L 656.81,535.02 L 655.49,531.78 L 655.34,531.02 L 655.31,529.55 L 655.35,528.78 L 655.77,526.98 L 655.91,526.49 L 656.30,525.37 L 656.51,524.79 L 657.05,523.44 L 657.34,522.74 L 658.05,521.11 L 659.32,518.30 L 660.20,516.36 L 661.70,512.94 L 662.41,511.28 L 663.58,508.29 L 664.13,506.83 L 665.01,504.08 L 665.41,502.72 L 666.04,500.02 L 666.33,498.65 L 666.74,495.81 L 666.93,494.35 L 667.17,491.18 L 667.28,489.53 L 667.39,485.84 L 667.45,479.50 L 667.45,477.26 L 667.39,473.28 L 667.34,471.36 L 667.15,467.89 L 667.04,466.20 L 666.69,463.08 L 666.50,461.55 L 665.96,458.61 L 665.66,457.14 L 664.90,454.21 L 664.48,452.73 L 663.46,449.65 L 662.92,448.08 L 661.60,444.68 L 659.27,439.05 L 658.45,437.13 L 657.15,433.30 L 656.57,431.44 L 655.83,428.15 L 655.68,427.38 L 655.52,426.05 L 655.46,425.43 L 655.47,424.43 L 655.50,423.98 L 655.70,423.37 L 656.23,423.00 L 656.43,423.00 L 656.93,422.26 L 657.59,420.48 L 657.84,419.51 L 658.78,417.90 L 659.31,417.14 L 660.74,415.97 L 661.50,415.43 L 663.28,414.71 L 664.20,414.40 L 666.20,414.13 L 667.21,414.06 M 631.55,515.12 L 629.94,515.56 L 626.62,515.91 L 624.95,515.99 L 621.59,515.67 L 619.91,515.43 L 618.28,514.97 L 618.42,515.00 L 622.78,515.66 L 624.97,515.67 L 629.30,515.47 L 631.24,515.06 L 632.33,514.78 M 617.77,447.13 L 618.04,447.42 L 618.60,448.12 L 618.94,448.67 L 619.66,449.91 L 620.07,450.73 L 621.59,453.45 L 622.57,454.69 L 623.22,455.16 L 624.67,456.03 L 625.76,456.45 L 626.91,456.88 L 627.62,457.12 L 629.11,457.61 L 630.00,457.89 L 632.94,458.89 L 634.68,459.54 L 635.39,459.83 L 636.69,460.40 L 637.11,460.62 L 637.79,461.02 L 637.83,461.14 L 638.67,461.87 L 639.60,462.00 L 640.22,461.90 L 641.54,461.59 L 642.30,461.27 L 643.89,460.53 L 644.75,460.01 L 646.34,459.11 L 647.09,458.77 L 647.33,458.73 L 647.75,458.73 L 647.85,458.85 L 648.00,459.18 L 648.00,459.46 L 648.29,460.64 L 648.72,461.33 L 649.00,461.50 L 649.37,461.60 L 649.50,461.48 L 649.50,461.31 L 649.46,460.92 L 649.42,460.77 L 649.58,461.19 L 650.44,464.45 L 650.82,466.12 L 651.34,469.67 L 651.56,471.47 L 651.75,475.21 L 651.80,477.10 L 651.66,480.91 L 651.55,482.82 L 651.08,486.59 L 650.81,488.47 L 650.04,492.09 L 649.61,493.88 L 648.53,497.24 L 646.57,501.87 L 645.80,503.37 L 643.70,506.27 L 642.57,507.68 L 639.95,510.20 L 639.68,510.44 L 633.05,503.35 L 627.21,496.14 L 623.79,490.94 L 622.39,488.27 L 619.79,482.90 L 618.87,480.28 L 618.01,477.68 L 617.69,476.41 L 617.11,473.92 L 616.94,472.72 L 616.57,469.47 L 616.37,467.02 L 616.30,465.71 L 616.07,460.30 L 616.06,457.71 L 616.07,455.16 L 616.10,454.00 L 616.18,451.77 L 616.24,450.84 L 616.39,449.11 L 616.49,448.49 L 616.70,447.44 L 616.84,447.23 L 617.34,446.94 M 264.50,487.93 L 264.46,488.71 L 264.38,490.04 L 264.34,490.67 L 264.26,491.64 L 264.21,492.08 L 264.12,492.65 L 263.98,493.00 L 263.88,493.00 L 263.60,492.93 L 263.86,492.69 L 264.01,492.27 L 264.08,491.93 L 264.22,491.16 L 264.28,490.63 L 264.39,489.50 L 264.44,488.79 L 264.51,487.54 M 253.97,489.77 L 254.45,489.94 L 252.96,489.43 M 244.51,486.78 L 246.77,487.43 L 247.98,487.81 L 250.43,488.58 L 251.63,488.97 L 252.44,489.25 L 247.39,487.65 L 246.14,487.27 L 243.88,486.61 L 243.85,486.60 M 239.33,485.37 L 240.36,485.68 L 239.66,485.51 L 239.12,485.30 M 235.87,483.81 L 235.86,483.81 L 235.82,483.76 M 235.97,461.55 L 235.59,466.88 L 235.45,469.31 L 235.20,474.00 L 235.13,475.95 L 235.07,477.83 L 235.05,478.64 L 235.03,480.18 L 235.04,480.80 L 235.07,481.95 L 235.11,482.35 L 235.19,483.04 L 235.17,483.01 L 235.09,482.32 L 235.06,481.92 L 235.03,480.77 L 235.03,480.15 L 235.04,478.62 L 235.06,477.80 L 235.12,475.92 L 235.19,473.97 L 235.45,469.28 L 235.59,466.84 L 235.97,461.51 L 236.00,461.06 M 264.73,478.92 L 264.74,477.23 L 264.74,478.12 M 625.17,439.18 L 626.67,439.45 L 625.11,439.17 L 623.57,439.05 L 616.50,438.50 L 623.67,439.06 M 673.10,419.44 L 672.24,420.25 L 672.03,420.87 L 672.12,421.23 L 672.42,421.99 L 672.76,422.44 L 673.58,423.39 L 674.19,423.96 L 675.33,424.99 L 675.78,425.31 L 676.61,425.82 L 676.94,425.89 L 677.56,425.91 L 677.82,425.74 L 678.32,425.29 L 678.56,424.90 L 678.64,424.21 L 678.47,423.63 L 678.29,423.31 L 677.36,421.94 L 676.71,421.29 L 675.34,420.07 L 674.69,419.71 L 674.06,419.41 L 673.79,419.36 L 673.28,419.32 M 720.57,400.89 L 720.69,401.15 L 720.53,400.83 M 681.82,379.83 L 681.53,380.54 L 681.21,381.49 L 681.22,381.45 L 681.61,380.20 L 681.84,379.59 L 682.60,378.41 L 684.27,376.41 L 682.65,378.45 M 692.86,313.13 L 694.97,315.70 L 699.15,320.90 L 701.16,323.55 L 705.12,328.91 L 707.01,331.64 L 708.26,333.49 L 706.58,331.10 L 701.45,324.21 L 698.84,320.77 L 693.56,314.14 L 692.27,312.54 L 690.51,310.44 M 737.00,321.48 L 737.00,321.40 L 736.84,321.01 L 737.00,321.40 M 664.63,284.79 L 667.15,286.99 L 668.02,287.77 L 662.45,283.01 L 660.74,281.60 M 659.46,280.55 L 660.13,281.10 L 658.33,279.67 M 650.37,273.58 L 651.50,274.42 L 651.79,274.64 L 649.95,273.29 M 641.05,267.21 L 636.83,264.58 L 639.97,266.52 M 630.02,243.11 L 630.02,243.11 L 630.00,243.00 M 629.83,242.07 L 629.83,242.08 L 629.63,241.47 M 629.19,240.14 L 629.19,240.14 L 628.98,239.66 M 583.92,238.66 L 584.64,238.13 L 585.03,237.75 L 586.66,236.00 L 587.38,235.00 L 588.06,234.00 L 588.34,233.53 L 588.83,232.62 L 588.98,232.25 L 589.19,231.55 L 589.17,231.33 L 589.01,230.98 L 588.76,230.98 L 588.35,230.81 L 588.38,230.55 L 588.51,230.37 L 589.34,229.52 L 590.06,229.02 L 591.65,227.99 L 592.52,227.56 L 594.25,226.78 L 594.97,226.63 L 596.37,226.32 L 597.60,226.04 L 598.12,225.92 L 596.30,226.81 L 595.38,227.30 L 593.62,228.46 L 592.76,229.08 L 591.13,230.50 L 590.33,231.25 L 588.86,232.93 L 586.85,235.75 L 586.30,236.64 L 584.91,238.05 L 584.56,238.34 L 583.91,238.74 L 583.07,239.00 L 583.01,239.00 M 627.15,235.67 L 627.74,236.88 L 627.74,236.88 L 627.27,235.92 L 626.26,234.31 M 625.73,233.49 L 625.89,233.74 L 625.61,233.32 M 624.98,232.44 L 625.42,233.06 L 624.08,231.48 L 623.62,230.96 M 622.40,229.71 L 623.28,230.59 L 623.35,230.67 L 621.82,229.30 L 621.15,228.73 M 619.46,227.48 L 620.46,228.20 L 620.96,228.59 L 619.34,227.50 L 618.48,226.96 M 613.92,225.04 L 616.23,225.81 L 617.32,226.34 L 618.47,226.95 L 616.67,226.07 L 615.76,225.66 L 613.87,225.03 L 613.76,225.00 M 602.01,504.80 L 603.40,506.23 L 604.78,507.54 L 603.07,505.92 L 601.77,504.60 L 599.48,501.62 L 596.55,496.70 L 599.55,501.66 M 630.45,248.93 L 630.44,248.10 L 630.39,246.67 L 630.32,245.29 L 630.09,243.63 L 630.32,245.28 L 630.39,246.65 L 630.44,248.09 L 630.45,248.92 L 630.46,250.66 L 630.45,251.66 L 630.46,250.66 Z" fill="rgba(97,225,94,1)"/>
<path d="M 616.06,457.71 L 616.07,460.30 L 616.26,464.73 L 616.06,462.41 L 615.99,458.97 L 616.02,457.31 L 616.07,455.59 M 624.73,440.51 L 626.26,440.73 L 629.31,441.26 L 630.60,441.64 L 631.83,442.04 L 632.32,442.25 L 633.22,442.70 L 633.50,442.93 L 634.56,443.77 L 635.47,444.45 L 635.98,444.82 L 638.14,446.35 L 639.15,447.00 L 640.93,448.44 L 642.11,449.66 L 642.69,450.40 L 643.84,451.94 L 644.40,452.83 L 645.50,454.67 L 646.03,455.70 L 647.18,457.91 L 647.62,458.73 L 647.33,458.73 L 647.09,458.77 L 646.34,459.11 L 644.75,460.01 L 643.89,460.53 L 642.30,461.27 L 641.54,461.59 L 640.22,461.90 L 639.60,462.00 L 638.67,461.87 L 637.83,461.14 L 637.79,461.02 L 637.11,460.62 L 636.69,460.40 L 635.39,459.83 L 634.68,459.54 L 632.94,458.89 L 630.00,457.89 L 629.11,457.61 L 627.62,457.12 L 626.91,456.88 L 625.76,456.45 L 624.67,456.03 L 623.22,455.16 L 622.57,454.69 L 621.59,453.45 L 620.07,450.73 L 619.66,449.91 L 618.94,448.67 L 618.60,448.12 L 618.04,447.42 L 617.77,447.13 L 617.34,446.94 L 616.84,447.23 L 616.81,447.27 L 617.05,445.79 L 617.30,444.78 L 617.83,442.90 L 618.15,442.24 L 618.80,441.11 L 619.18,440.88 L 620.28,440.53 L 621.33,440.41 L 621.96,440.40 M 648.13,459.65 L 648.66,460.58 L 648.87,460.91 L 649.25,461.51 L 649.32,461.59 L 649.00,461.50 L 648.72,461.33 L 648.29,460.64 L 648.00,459.46 L 648.00,459.42 M 625.11,439.17 L 627.99,439.68 L 629.40,439.98 L 632.04,440.85 L 633.32,441.33 L 635.72,442.57 L 636.89,443.23 L 639.06,444.84 L 640.12,445.69 L 641.22,446.81 L 640.11,445.68 L 639.05,444.83 L 636.88,443.23 L 635.71,442.56 L 633.31,441.33 L 632.03,440.85 L 629.39,439.98 L 627.98,439.68 L 625.10,439.17 M 699.20,373.00 L 700.69,373.52 L 703.46,375.15 L 704.82,376.08 L 707.40,378.60 L 708.68,379.99 L 711.17,383.53 L 711.80,384.49 L 713.05,386.61 L 714.94,390.12 L 715.48,391.18 L 716.56,393.27 L 717.08,394.29 L 718.03,396.12 L 718.48,396.99 L 719.21,398.37 L 719.91,399.68 L 720.38,400.52 L 721.35,402.50 L 721.83,403.53 L 722.79,405.77 L 723.73,408.05 L 725.37,412.76 L 725.75,413.91 L 726.38,416.05 L 726.67,417.09 L 727.10,418.90 L 727.29,419.76 L 727.46,421.10 L 727.39,422.43 L 727.32,422.62 L 727.28,423.30 L 727.28,423.68 L 727.36,424.67 L 728.04,428.14 L 728.27,429.02 L 728.66,430.49 L 728.84,431.18 L 729.11,432.33 L 729.35,433.40 L 729.48,434.84 L 729.49,435.48 L 729.17,436.40 L 728.18,437.75 L 727.52,438.49 L 726.28,439.49 L 725.67,439.91 L 724.54,440.25 L 723.98,440.35 L 722.91,440.04 L 722.38,439.81 L 721.37,438.85 L 720.72,438.14 L 719.34,437.44 L 716.83,437.38 L 716.30,437.49 L 715.43,437.53 L 715.01,437.52 L 714.30,437.29 L 713.95,437.14 L 713.29,436.60 L 712.28,435.41 L 711.77,434.71 L 710.55,433.56 L 710.25,433.31 L 709.69,432.94 L 708.97,432.66 L 708.21,432.53 L 706.88,432.00 L 706.24,431.67 L 705.04,430.60 L 704.45,429.99 L 703.24,428.24 L 701.25,424.68 L 700.84,423.88 L 700.03,422.40 L 699.63,421.70 L 698.90,420.51 L 698.55,419.97 L 697.98,419.21 L 697.88,419.11 L 697.89,419.11 L 697.84,418.59 L 697.75,418.23 L 697.53,417.46 L 697.35,416.97 L 696.95,415.95 L 696.69,415.35 L 696.13,414.09 L 695.79,413.37 L 695.06,411.89 L 694.64,411.06 L 692.79,407.55 L 691.64,405.50 L 689.65,401.93 L 688.44,399.76 L 687.90,398.76 L 686.86,396.84 L 686.40,395.96 L 685.52,394.26 L 685.14,393.49 L 683.75,390.61 L 683.28,389.42 L 682.47,387.21 L 682.26,386.29 L 681.99,384.56 L 682.04,383.82 L 682.27,382.41 L 682.55,381.76 L 683.24,380.49 L 683.74,379.84 L 684.84,378.52 L 685.53,377.79 L 689.04,374.90 L 690.24,374.21 L 690.83,373.96 L 691.98,373.53 L 692.52,373.43 L 694.82,372.74 L 695.29,372.48 L 695.41,372.35 L 695.54,372.14 M 623.61,225.15 L 624.16,225.38 L 624.55,225.55 L 625.39,225.94 L 625.90,226.18 L 626.99,226.70 L 627.61,227.00 L 630.28,228.31 L 631.81,229.08 L 634.96,230.66 L 636.59,231.50 L 639.85,233.17 L 641.40,233.98 L 644.41,235.56 L 645.69,236.25 L 648.08,237.55 L 648.91,238.02 L 649.68,238.47 L 649.95,238.63 L 650.42,238.93 L 650.52,239.02 L 651.89,239.72 L 652.86,239.88 L 653.21,239.76 L 653.38,239.37 L 653.06,238.92 L 652.71,238.62 L 652.63,238.56 L 653.44,239.08 L 654.26,239.62 L 655.48,240.48 L 656.50,241.35 L 656.64,241.53 L 657.12,242.00 L 657.40,242.25 L 658.09,242.82 L 660.50,244.53 L 660.71,244.66 L 661.35,245.10 L 661.71,245.35 L 662.62,246.00 L 663.11,246.34 L 664.24,247.17 L 664.84,247.60 L 666.16,248.58 L 667.52,249.58 L 670.63,251.91 L 672.23,253.10 L 675.56,255.62 L 677.22,256.88 L 680.45,259.35 L 682.02,260.55 L 684.82,262.73 L 685.48,263.24 L 686.67,264.17 L 687.23,264.61 L 688.20,265.38 L 688.65,265.75 L 689.36,266.33 L 690.08,266.96 L 692.51,269.21 L 697.26,273.77 L 699.60,276.05 L 704.04,280.53 L 706.19,282.74 L 710.13,286.95 L 715.27,292.75 L 716.20,293.85 L 718.33,296.45 L 719.43,297.81 L 721.79,300.78 L 724.17,303.79 L 728.91,309.98 L 730.04,311.46 L 732.08,314.20 L 733.05,315.51 L 734.65,317.73 L 735.37,318.75 L 736.37,320.24 L 736.57,320.56 L 736.84,321.01 L 737.00,321.40 L 737.00,321.48 L 737.34,322.15 L 737.57,322.55 L 738.28,323.77 L 738.68,324.44 L 739.67,326.04 L 741.37,328.72 L 742.57,330.58 L 745.08,334.68 L 745.67,335.66 L 746.70,337.41 L 747.88,339.50 L 748.47,340.60 L 749.68,342.77 L 749.97,343.26 L 750.46,344.10 L 751.02,345.00 L 751.14,345.18 L 751.46,345.74 L 751.64,346.06 L 752.07,346.87 L 752.52,347.75 L 753.68,350.10 L 754.29,351.35 L 755.66,354.25 L 756.36,355.74 L 757.82,358.91 L 758.55,360.51 L 759.96,363.67 L 760.65,365.23 L 761.91,368.11 L 762.50,369.48 L 763.45,371.80 L 763.67,372.33 L 764.02,373.23 L 764.41,374.33 L 764.86,375.66 L 765.99,378.58 L 766.27,379.28 L 766.81,380.53 L 767.51,382.03 L 767.92,382.82 L 768.57,384.59 L 769.01,386.70 L 769.01,387.20 L 769.39,388.71 L 770.31,391.00 L 770.49,391.34 L 770.91,392.37 L 771.13,392.92 L 771.60,394.23 L 772.87,398.50 L 773.21,399.88 L 774.09,403.17 L 774.31,403.98 L 774.73,405.48 L 775.27,407.39 L 775.58,408.46 L 776.06,411.20 L 776.35,414.89 L 776.35,415.40 L 776.25,416.76 L 776.19,417.48 L 776.00,419.14 L 775.80,420.85 L 775.25,424.55 L 775.10,425.45 L 774.80,427.13 L 774.65,427.94 L 774.37,429.33 L 774.23,429.97 L 773.97,430.92 L 773.66,431.67 L 773.46,431.87 L 772.60,431.66 L 772.13,431.48 L 771.04,430.76 L 770.50,430.37 L 769.62,429.47 L 769.00,428.26 L 769.00,428.03 L 768.58,427.68 L 768.30,427.52 L 767.25,427.29 L 766.65,427.19 L 764.92,427.07 L 761.47,427.00 L 760.59,427.00 L 759.11,426.99 L 758.42,426.98 L 757.25,426.93 L 756.16,426.86 L 754.63,426.56 L 753.94,426.36 L 752.82,425.67 L 751.05,424.05 L 750.64,423.63 L 749.78,422.45 L 749.35,421.81 L 748.52,420.31 L 746.51,415.37 L 746.28,414.59 L 745.80,413.24 L 745.57,412.61 L 745.12,411.66 L 744.91,411.24 L 744.55,410.78 L 744.14,410.77 L 744.05,410.92 L 744.00,410.87 L 743.99,410.77 L 743.78,408.96 L 743.57,407.83 L 743.11,405.46 L 742.83,404.33 L 742.25,402.17 L 741.97,401.42 L 741.34,399.93 L 741.00,399.30 L 740.87,399.15 L 740.65,398.96 L 740.57,399.01 L 740.46,399.22 L 740.45,399.46 L 740.45,400.03 L 740.49,400.44 L 740.61,401.33 L 740.71,401.87 L 740.95,403.04 L 741.06,403.47 L 740.20,400.47 L 738.17,394.09 L 737.66,392.53 L 738.53,394.88 L 739.30,397.00 L 739.53,397.46 L 739.66,397.53 L 739.72,397.45 L 739.82,397.22 L 739.85,396.99 L 739.91,396.46 L 739.92,396.09 L 739.64,394.45 L 739.15,392.71 L 738.79,391.59 L 738.00,389.17 L 737.51,387.79 L 736.48,384.91 L 735.91,383.36 L 733.45,376.96 L 732.16,373.85 L 730.88,370.79 L 730.26,369.38 L 729.04,366.66 L 728.49,365.50 L 724.47,357.57 L 721.48,351.98 L 720.00,349.36 L 718.54,346.78 L 717.85,345.60 L 716.49,343.30 L 715.88,342.30 L 714.70,340.40 L 714.19,339.64 L 713.25,338.26 L 712.90,337.81 L 710.85,334.93 L 710.38,334.14 L 710.23,333.85 L 710.00,333.32 L 710.00,333.20 L 709.78,332.56 L 709.44,331.92 L 709.19,331.52 L 708.01,329.75 L 707.25,328.79 L 704.57,325.36 L 703.63,324.13 L 703.19,323.56 L 702.34,322.45 L 702.00,321.99 L 695.52,313.81 L 691.00,308.47 L 688.64,305.87 L 683.87,300.71 L 681.39,298.21 L 676.39,293.26 L 673.81,290.88 L 668.61,286.16 L 665.94,283.90 L 660.57,279.45 L 657.83,277.32 L 652.31,273.15 L 649.50,271.18 L 643.87,267.31 L 641.01,265.50 L 637.87,263.49 L 636.15,262.36 L 635.46,261.88 L 634.18,260.97 L 633.69,260.58 L 632.81,259.84 L 632.50,259.52 L 631.95,258.89 L 631.79,258.61 L 631.54,258.04 L 631.50,257.77 L 631.56,256.65 L 631.82,255.97 L 632.14,254.65 L 632.28,253.51 L 632.32,252.85 L 632.39,249.96 L 632.30,248.39 L 632.07,245.25 L 631.85,243.86 L 631.61,242.52 L 631.47,241.96 L 631.18,240.89 L 631.01,240.50 L 630.24,238.35 L 629.75,236.69 L 629.60,236.00 L 629.14,234.77 L 628.63,233.80 L 628.31,233.28 L 626.82,231.14 L 625.97,230.25 L 624.88,228.99 L 624.34,228.25 L 624.18,227.95 L 623.94,227.41 L 623.94,227.25 L 624.02,226.99 L 624.20,226.98 L 624.85,226.75 L 624.76,226.57 L 624.62,226.45 L 624.27,226.17 L 624.00,226.00 L 623.13,225.31 L 622.98,225.02 L 623.16,225.02 M 673.79,419.36 L 674.06,419.41 L 674.69,419.71 L 675.34,420.07 L 676.71,421.29 L 677.36,421.94 L 678.29,423.31 L 678.47,423.63 L 678.64,424.21 L 678.56,424.90 L 678.32,425.29 L 677.82,425.74 L 677.56,425.91 L 676.94,425.89 L 676.61,425.82 L 675.78,425.31 L 675.33,424.99 L 674.19,423.96 L 673.58,423.39 L 672.76,422.44 L 672.42,421.99 L 672.12,421.23 L 672.03,420.87 L 672.24,420.25 L 673.10,419.44 L 673.28,419.32 M 692.10,409.44 L 692.71,410.65 L 693.86,412.93 L 693.95,413.12 L 693.38,412.00 L 692.94,411.11 L 691.78,408.85 L 691.68,408.65 M 681.12,382.19 L 681.00,383.77 L 681.00,384.78 L 681.21,387.56 L 681.25,387.76 L 681.24,387.72 L 681.02,386.81 L 680.83,385.12 L 680.77,384.29 L 680.93,382.74 L 681.04,381.99 L 681.21,381.50 M 690.65,372.27 L 688.30,373.34 L 687.18,374.05 L 685.04,375.58 L 684.25,376.43 L 684.16,376.54 L 684.27,376.41 L 685.31,375.26 L 687.48,373.64 L 688.59,372.93 L 690.71,372.25 M 711.98,338.96 L 713.62,341.53 L 716.82,346.63 L 718.31,349.20 L 721.22,354.39 L 722.61,357.08 L 725.35,362.56 L 726.69,365.48 L 727.15,366.51 L 727.01,366.21 L 725.58,363.19 L 722.54,357.26 L 720.99,354.31 L 717.72,348.51 L 716.05,345.63 L 712.54,339.97 L 710.88,337.36 M 512.96,199.80 L 520.95,199.95 L 526.06,200.11 L 528.33,200.21 L 530.54,200.32 L 531.53,200.38 L 533.45,200.49 L 534.27,200.56 L 535.83,200.68 L 536.45,200.75 L 537.58,200.88 L 537.96,200.94 L 540.51,201.35 L 542.39,201.63 L 543.34,201.77 L 545.24,202.02 L 546.12,202.13 L 547.81,202.34 L 548.50,202.41 L 553.35,203.05 L 555.07,203.32 L 555.86,203.46 L 557.38,203.73 L 558.00,203.86 L 560.22,204.32 L 561.99,204.68 L 562.94,204.87 L 566.85,205.65 L 568.50,205.98 L 573.25,207.07 L 574.58,207.45 L 575.09,207.62 L 576.00,207.94 L 576.24,208.07 L 577.83,208.73 L 578.89,209.00 L 579.24,208.99 L 579.87,209.08 L 580.53,209.23 L 580.97,209.34 L 583.00,209.88 L 584.34,210.26 L 587.20,211.11 L 588.83,211.61 L 592.17,212.65 L 593.91,213.21 L 597.40,214.34 L 599.08,214.90 L 602.36,216.00 L 603.81,216.50 L 606.55,217.47 L 607.60,217.87 L 608.58,218.25 L 608.97,218.41 L 609.68,218.71 L 609.92,218.83 L 611.69,219.78 L 612.60,220.36 L 612.92,220.61 L 613.46,221.11 L 613.60,221.33 L 613.78,221.75 L 613.73,221.92 L 613.55,222.26 L 613.32,222.39 L 612.78,222.64 L 612.37,222.73 L 611.46,222.89 L 610.87,222.93 L 609.60,223.00 L 608.83,223.01 L 604.37,223.28 L 601.47,223.69 L 600.23,223.97 L 599.04,224.27 L 598.52,224.42 L 597.56,224.75 L 597.19,224.92 L 596.52,225.25 L 596.31,225.42 L 596.00,225.76 L 596.00,225.93 L 596.30,226.15 L 596.76,226.17 L 597.10,226.13 L 598.43,225.85 L 598.30,225.88 L 597.60,226.04 L 596.37,226.32 L 594.97,226.63 L 594.25,226.78 L 592.52,227.56 L 591.65,227.99 L 590.06,229.02 L 589.34,229.52 L 588.51,230.37 L 588.38,230.55 L 588.35,230.81 L 588.76,230.98 L 589.01,230.98 L 589.10,231.18 L 588.81,231.00 L 588.51,231.00 L 587.44,231.43 L 587.00,232.07 L 587.00,232.48 L 586.29,233.99 L 585.25,235.10 L 584.58,235.54 L 582.34,236.45 L 580.51,236.67 L 579.36,236.58 L 576.88,236.28 L 575.34,235.92 L 573.74,235.54 L 572.85,235.29 L 571.02,234.77 L 570.00,234.45 L 568.80,234.12 L 567.75,233.85 L 567.11,233.70 L 564.28,233.04 L 562.56,232.67 L 558.95,231.89 L 556.99,231.49 L 552.99,230.70 L 551.00,230.32 L 546.37,229.47 L 543.64,229.00 L 542.37,228.81 L 537.48,228.18 L 534.78,228.00 L 532.00,227.84 L 530.42,227.79 L 527.11,227.70 L 525.17,227.68 L 521.08,227.64 L 518.66,227.63 L 516.17,227.63 L 514.81,227.63 L 512.02,227.64 L 510.50,227.64 L 500.29,227.75 L 494.00,227.92 L 491.08,228.05 L 485.38,228.34 L 482.73,228.54 L 477.54,228.97 L 475.11,229.24 L 470.36,229.82 L 468.11,230.16 L 463.70,230.90 L 461.59,231.33 L 453.41,233.21 L 449.50,234.42 L 445.38,235.53 L 444.16,235.79 L 443.67,235.87 L 442.77,235.99 L 442.50,236.00 L 440.31,236.41 L 438.59,237.01 L 437.86,237.39 L 436.42,238.06 L 435.15,238.59 L 434.43,238.87 L 431.34,240.03 L 429.86,240.51 L 427.39,241.36 L 425.55,242.04 L 424.61,242.39 L 422.73,243.12 L 421.86,243.47 L 420.19,244.17 L 419.50,244.47 L 416.97,245.60 L 414.90,246.51 L 413.77,247.02 L 409.06,249.10 L 407.00,250.02 L 404.06,251.38 L 402.32,252.23 L 401.61,252.61 L 400.31,253.32 L 399.89,253.59 L 399.21,254.06 L 399.17,254.17 L 398.58,254.76 L 397.95,255.00 L 397.62,255.00 L 396.57,255.36 L 395.39,255.91 L 394.62,256.32 L 392.97,257.21 L 392.04,257.75 L 390.11,258.88 L 389.11,259.50 L 386.25,261.25 L 384.54,262.27 L 383.85,262.68 L 382.58,263.42 L 382.17,263.64 L 381.50,264.00 L 381.45,264.00 L 380.99,264.19 L 380.46,264.50 L 380.09,264.74 L 379.28,265.26 L 378.79,265.59 L 377.76,266.30 L 377.16,266.72 L 374.61,268.53 L 373.13,269.61 L 370.06,271.86 L 368.43,273.08 L 365.14,275.55 L 363.52,276.79 L 360.31,279.25 L 358.84,280.40 L 356.02,282.63 L 354.85,283.58 L 353.74,284.50 L 353.26,284.90 L 352.36,285.67 L 352.00,285.99 L 347.23,290.39 L 343.91,293.56 L 342.24,295.20 L 335.54,301.90 L 332.51,305.10 L 329.54,308.25 L 328.21,309.71 L 325.67,312.54 L 324.60,313.79 L 322.63,316.14 L 321.90,317.08 L 321.22,317.98 L 320.96,318.37 L 320.49,319.08 L 320.33,319.37 L 319.26,320.84 L 318.56,321.42 L 318.33,321.40 L 317.86,321.60 L 317.44,321.95 L 317.20,322.22 L 316.16,323.50 L 315.65,324.34 L 314.60,325.93 L 313.66,327.27 L 313.12,328.02 L 310.79,331.15 L 309.65,332.57 L 306.21,337.08 L 305.19,338.50 L 304.77,339.11 L 304.01,340.23 L 303.77,340.63 L 302.84,342.10 L 302.03,343.31 L 301.57,343.98 L 299.61,346.76 L 298.69,348.00 L 295.33,352.50 L 286.42,352.30 L 281.08,352.18 L 278.25,352.12 L 277.16,352.07 L 275.17,351.97 L 274.45,351.90 L 273.15,351.72 L 272.72,351.60 L 271.98,351.31 L 271.77,351.11 L 271.43,350.66 L 271.37,350.36 L 271.30,349.72 L 271.31,349.30 L 271.36,348.41 L 271.37,347.86 L 271.62,345.14 L 271.75,344.50 L 271.82,344.31 L 271.96,344.00 L 272.03,344.00 L 272.46,343.75 L 272.82,343.37 L 273.02,343.09 L 273.91,341.75 L 274.37,340.91 L 275.26,339.16 L 275.61,338.31 L 276.21,336.70 L 276.30,336.13 L 276.75,334.91 L 277.35,333.79 L 277.75,333.14 L 279.66,330.30 L 280.81,328.88 L 282.44,326.79 L 283.39,325.47 L 283.77,324.89 L 284.46,323.80 L 284.67,323.40 L 285.00,322.69 L 285.00,322.52 L 285.13,322.13 L 285.33,321.71 L 285.49,321.43 L 286.25,320.13 L 286.79,319.28 L 287.98,317.45 L 288.67,316.42 L 290.10,314.31 L 290.86,313.22 L 292.38,311.05 L 293.12,310.03 L 294.57,308.04 L 295.21,307.19 L 296.43,305.62 L 296.88,305.08 L 297.69,304.16 L 297.88,304.03 L 298.71,303.17 L 299.33,302.30 L 299.59,301.84 L 300.40,300.67 L 301.27,299.56 L 301.86,298.87 L 303.12,297.39 L 303.88,296.53 L 305.46,294.75 L 306.35,293.76 L 308.20,291.74 L 309.20,290.65 L 311.25,288.45 L 312.32,287.30 L 316.74,282.63 L 319.01,280.27 L 323.54,275.60 L 325.67,273.45 L 327.77,271.33 L 328.76,270.36 L 330.68,268.46 L 331.55,267.61 L 333.24,265.98 L 333.97,265.30 L 335.35,264.02 L 335.90,263.53 L 336.92,262.66 L 337.27,262.40 L 337.86,262.00 L 337.97,262.00 L 338.78,261.56 L 339.79,260.87 L 340.48,260.37 L 341.97,259.27 L 342.83,258.61 L 344.62,257.22 L 345.57,256.46 L 349.12,253.69 L 351.70,251.75 L 353.04,250.77 L 358.47,246.84 L 361.01,245.10 L 363.48,243.41 L 364.59,242.67 L 366.72,241.28 L 367.60,240.74 L 369.22,239.76 L 369.78,239.46 L 370.74,239.00 L 370.92,239.00 L 371.68,238.74 L 372.00,238.36 L 372.00,238.12 L 372.26,237.68 L 372.66,237.32 L 372.95,237.12 L 374.36,236.31 L 375.25,235.96 L 378.43,234.43 L 380.67,233.12 L 381.50,232.53 L 382.44,231.95 L 383.37,231.44 L 383.96,231.12 L 385.23,230.47 L 385.98,230.09 L 387.54,229.32 L 388.42,228.89 L 392.15,227.10 L 394.26,226.11 L 398.62,224.09 L 400.89,223.06 L 405.46,221.00 L 407.69,220.01 L 412.07,218.09 L 414.05,217.25 L 415.99,216.43 L 416.88,216.06 L 418.60,215.35 L 419.37,215.04 L 420.83,214.46 L 421.44,214.23 L 422.59,213.81 L 423.03,213.66 L 427.40,212.40 L 428.93,212.01 L 429.63,211.85 L 430.98,211.55 L 431.53,211.45 L 435.07,210.59 L 436.22,210.24 L 436.72,210.06 L 437.66,209.70 L 438.00,209.53 L 439.44,208.97 L 440.76,208.54 L 441.53,208.32 L 444.85,207.43 L 446.50,207.09 L 449.26,206.50 L 451.31,206.04 L 452.35,205.81 L 454.43,205.33 L 455.39,205.11 L 457.24,204.67 L 458.00,204.49 L 462.91,203.45 L 466.66,202.81 L 468.74,202.51 L 473.01,201.94 L 475.31,201.69 L 479.98,201.20 L 482.43,200.99 L 492.48,200.25 L 497.65,200.05 L 508.00,199.75 M 277.90,329.69 L 279.11,327.70 L 280.70,325.31 M 287.04,315.82 L 288.61,313.54 L 289.34,312.56 M 298.67,300.26 L 298.78,300.11 L 298.85,300.03 M 676.78,295.87 L 677.51,296.61 L 675.02,294.20 M 645.47,270.02 L 651.25,274.03 L 654.13,276.21 L 659.89,280.69 L 662.74,283.09 L 668.42,287.99 L 671.22,290.59 L 671.96,291.29 L 667.15,286.99 L 664.63,284.79 L 659.46,280.55 L 651.50,274.42 L 650.37,273.58 L 647.79,271.76 L 646.48,270.84 L 643.79,269.02 L 642.46,268.13 L 642.06,267.87 M 320.10,276.51 L 321.14,275.45 L 324.20,272.61 M 342.28,256.99 L 337.79,260.63 L 335.44,262.60 L 326.09,270.85 L 329.21,267.95 L 333.30,264.25 L 341.80,257.26 L 344.16,255.48 M 355.50,247.00 L 357.04,245.92 L 358.52,244.93 M 630.02,243.12 L 630.09,243.63 L 630.02,243.11 M 629.83,242.09 L 630.00,243.00 L 629.83,242.08 M 629.21,240.17 L 629.63,241.47 L 629.19,240.14 M 627.78,236.96 L 628.98,239.66 L 627.74,236.88 M 372.04,236.35 L 372.76,235.91 L 373.28,235.62 M 627.13,235.63 L 627.15,235.67 L 626.92,235.32 M 588.83,232.62 L 588.34,233.53 L 588.06,234.00 L 587.40,234.96 L 588.58,233.08 L 588.88,232.50 M 624.69,232.11 L 624.72,232.16 L 624.54,231.96 M 589.19,231.55 L 589.18,231.58 L 589.19,231.54 M 428.35,210.75 L 424.51,211.96 L 422.67,212.57 L 415.51,215.06 L 412.04,216.43 L 405.12,219.29 L 401.51,220.96 L 397.85,222.66 L 395.94,223.59 L 392.06,225.51 L 390.00,226.55 L 382.15,230.64 L 381.67,230.91 L 382.53,230.42 L 387.45,227.75 L 397.31,222.86 L 399.75,221.69 L 404.54,219.52 L 411.50,216.57 L 414.01,215.56 L 419.50,213.59 L 422.31,212.61 L 428.28,210.73 L 431.32,209.81 L 434.44,208.95 M 609.16,217.19 L 612.47,218.47 L 619.01,221.22 L 622.27,222.62 L 628.70,225.61 L 631.90,227.13 L 636.64,229.55 L 635.67,229.07 L 630.03,226.34 L 627.07,224.97 L 621.09,222.24 L 618.14,220.95 L 612.28,218.45 L 609.54,217.36 L 608.68,217.02 M 621.74,229.18 L 621.82,229.25 L 621.57,229.06 M 618.39,226.88 L 618.69,227.07 L 617.92,226.66 M 608.05,224.08 L 610.77,224.27 L 612.09,224.55 L 612.66,224.70 L 610.33,224.35 L 609.10,224.22 L 606.59,224.27 L 602.77,224.84 L 601.32,225.19 L 598.78,225.77 L 599.75,225.43 L 603.90,224.36 L 606.68,224.04 M 614.70,225.23 L 615.66,225.62 L 613.92,225.04 L 613.15,224.83 M 568.56,204.84 L 575.44,206.39 L 589.06,210.26 L 595.84,212.32 L 600.95,214.19 L 591.08,210.98 L 583.88,208.83 L 580.31,207.87 L 573.19,206.00 L 569.65,205.18 L 563.07,203.71 M 547.83,200.97 L 554.76,202.00 L 561.88,203.46 L 559.09,202.92 L 552.08,201.63 L 548.60,201.09 L 547.03,200.86 M 485.79,199.10 L 486.00,199.07 L 486.41,199.04 M 486.94,198.99 L 489.36,198.76 L 489.59,198.75 M 272.46,338.88 L 269.81,343.48 L 267.56,347.72 L 270.30,342.57 Z" fill="rgba(151,238,45,1)"/>
<path d="M 308.47,579.59 L 309.90,581.88 L 310.58,582.87 L 311.93,584.74 L 312.00,584.82 L 311.31,584.09 L 311.06,583.75 L 310.45,582.87 L 310.13,582.39 L 309.43,581.26 L 308.70,580.06 L 308.03,578.88 M 287.91,532.54 L 290.20,539.76 L 291.52,543.39 L 294.30,550.66 L 295.87,554.34 L 298.71,560.75 L 295.65,554.09 L 294.80,552.18 L 293.32,548.69 L 291.58,544.18 L 289.92,539.48 L 287.13,529.96 L 287.12,529.93 M 327.51,555.58 L 327.17,554.96 L 324.50,549.62 M 310.04,505.71 L 310.65,509.13 L 312.20,515.86 L 313.03,519.21 L 315.02,525.85 L 316.07,529.16 L 318.52,535.79 L 319.80,539.11 L 322.74,545.80 L 324.25,549.11 L 323.43,547.48 L 321.80,543.83 L 318.70,536.56 L 317.37,532.98 L 314.86,525.83 L 313.82,522.26 L 311.88,515.14 L 311.12,511.55 L 309.72,504.35 L 309.28,501.11 M 343.36,544.06 L 342.78,543.81 L 342.78,543.81 M 341.66,542.99 L 341.56,542.92 L 340.95,542.41 L 340.88,542.35 M 332.72,529.08 L 333.91,531.72 L 333.86,531.62 L 333.23,530.30 L 332.00,527.45 L 331.93,527.25 M 286.50,527.65 L 285.82,525.18 L 285.51,523.71 M 327.29,513.18 L 328.00,515.64 L 329.10,519.28 L 328.64,517.99 L 327.44,514.03 L 326.72,510.84 M 325.63,506.01 L 325.61,505.90 L 324.78,501.81 L 324.77,501.73 M 262.69,492.69 L 263.15,492.72 L 263.86,492.68 L 263.86,492.69 L 263.59,492.94 L 263.44,492.93 L 262.58,492.69 L 262.07,492.55 L 261.93,492.51 M 254.54,489.97 L 255.50,490.32 L 256.15,490.55 L 255.00,490.14 L 254.40,489.92 M 323.71,463.97 L 323.54,466.31 L 323.23,471.04 L 323.15,473.45 L 323.02,478.27 L 323.03,480.66 L 323.10,485.39 L 323.20,487.66 L 323.35,490.28 L 323.25,489.38 L 322.92,481.06 L 322.84,476.90 L 323.23,468.67 L 323.52,464.58 L 324.08,460.60 M 280.29,487.83 L 280.20,486.42 L 279.96,481.56 L 280.00,476.51 M 242.00,486.09 L 243.83,486.60 L 241.65,486.02 L 240.84,485.83 L 239.74,485.49 M 236.22,458.19 L 235.89,465.22 L 235.82,468.79 L 235.52,483.47 L 235.25,483.20 L 235.19,483.04 L 235.11,482.35 L 235.07,481.95 L 235.04,480.80 L 235.03,480.18 L 235.05,478.64 L 235.07,477.83 L 235.13,475.95 L 235.20,474.00 L 235.45,469.31 L 235.59,466.88 L 235.97,461.55 L 236.16,458.85 L 236.23,458.03 M 517.47,198.14 L 520.91,198.26 L 527.80,198.70 L 531.26,198.96 L 538.18,199.68 L 541.64,200.08 L 548.60,201.09 L 552.08,201.63 L 559.09,202.92 L 562.60,203.60 L 569.65,205.18 L 573.19,206.00 L 580.31,207.87 L 583.88,208.83 L 591.08,210.98 L 601.97,214.52 L 603.11,214.91 L 605.59,215.82 L 606.85,216.30 L 609.54,217.36 L 612.28,218.45 L 618.14,220.95 L 621.09,222.24 L 627.07,224.97 L 630.03,226.34 L 635.67,229.07 L 638.41,230.42 L 643.26,232.94 L 644.40,233.55 L 646.47,234.68 L 647.45,235.23 L 649.16,236.23 L 649.97,236.72 L 651.27,237.56 L 651.87,237.96 L 652.71,238.62 L 653.06,238.92 L 653.38,239.37 L 653.21,239.76 L 652.86,239.88 L 651.89,239.72 L 650.52,239.02 L 650.42,238.93 L 649.95,238.63 L 649.68,238.47 L 648.91,238.02 L 648.08,237.55 L 645.69,236.25 L 644.41,235.56 L 641.40,233.98 L 639.85,233.17 L 636.59,231.50 L 634.96,230.66 L 631.81,229.08 L 630.28,228.31 L 627.61,227.00 L 626.99,226.70 L 625.90,226.18 L 625.39,225.94 L 624.55,225.55 L 624.16,225.38 L 623.61,225.15 L 623.16,225.02 L 622.98,225.02 L 623.13,225.31 L 624.00,226.00 L 624.27,226.17 L 624.62,226.45 L 624.76,226.57 L 624.85,226.75 L 624.20,226.98 L 624.02,226.99 L 623.94,227.25 L 623.94,227.41 L 624.18,227.95 L 624.34,228.25 L 624.88,228.99 L 625.97,230.25 L 626.82,231.14 L 628.31,233.28 L 628.63,233.80 L 629.14,234.77 L 629.60,236.00 L 629.75,236.69 L 630.24,238.35 L 631.01,240.50 L 631.18,240.89 L 631.47,241.96 L 631.61,242.52 L 631.85,243.86 L 632.07,245.25 L 632.30,248.39 L 632.39,249.96 L 632.32,252.85 L 632.28,253.51 L 632.14,254.65 L 631.82,255.97 L 631.56,256.65 L 631.50,257.77 L 631.54,258.04 L 631.79,258.61 L 631.95,258.89 L 632.50,259.52 L 632.81,259.84 L 633.69,260.58 L 634.18,260.97 L 635.46,261.88 L 636.15,262.36 L 637.87,263.49 L 641.01,265.50 L 643.87,267.31 L 649.50,271.18 L 652.31,273.15 L 657.83,277.32 L 660.57,279.45 L 665.94,283.90 L 668.61,286.16 L 673.81,290.88 L 676.39,293.26 L 681.39,298.21 L 683.87,300.71 L 688.64,305.87 L 691.00,308.47 L 695.52,313.81 L 702.00,321.99 L 702.34,322.45 L 703.19,323.56 L 703.63,324.13 L 704.57,325.36 L 707.25,328.79 L 708.01,329.75 L 709.19,331.52 L 709.44,331.92 L 709.78,332.56 L 710.00,333.20 L 710.00,333.32 L 710.23,333.85 L 710.38,334.14 L 710.85,334.93 L 712.90,337.81 L 713.25,338.26 L 714.19,339.64 L 714.70,340.40 L 715.88,342.30 L 716.49,343.30 L 717.85,345.60 L 718.54,346.78 L 720.00,349.36 L 721.48,351.98 L 724.47,357.57 L 728.49,365.50 L 729.04,366.66 L 730.26,369.38 L 730.88,370.79 L 732.16,373.85 L 733.45,376.96 L 735.91,383.36 L 736.48,384.91 L 737.51,387.79 L 738.00,389.17 L 738.79,391.59 L 739.15,392.71 L 739.64,394.45 L 739.92,396.09 L 739.91,396.46 L 739.85,396.99 L 739.82,397.22 L 739.72,397.45 L 739.66,397.53 L 739.53,397.46 L 739.30,397.00 L 738.53,394.88 L 737.04,390.86 L 736.30,388.88 L 734.87,385.12 L 733.45,381.43 L 730.73,374.72 L 729.37,371.47 L 726.69,365.48 L 725.35,362.56 L 722.61,357.08 L 721.22,354.39 L 718.31,349.20 L 716.82,346.63 L 713.62,341.53 L 711.98,338.96 L 708.40,333.73 L 702.46,325.50 L 700.11,322.34 L 695.19,316.17 L 692.70,313.11 L 687.51,307.19 L 684.90,304.27 L 679.50,298.64 L 676.78,295.87 L 671.22,290.59 L 668.42,287.99 L 662.74,283.09 L 659.89,280.69 L 654.13,276.21 L 651.25,274.03 L 645.47,270.02 L 636.83,264.58 L 630.40,260.82 L 630.45,251.66 L 630.46,250.66 L 630.45,248.93 L 630.44,248.10 L 630.39,246.67 L 630.32,245.29 L 630.02,243.12 L 629.83,242.09 L 629.21,240.17 L 627.78,236.96 L 627.13,235.63 L 625.53,233.26 L 624.69,232.11 L 622.75,230.13 L 621.74,229.18 L 619.53,227.61 L 618.39,226.88 L 615.94,225.74 L 614.70,225.23 L 612.09,224.55 L 610.77,224.27 L 608.05,224.08 L 606.68,224.04 L 603.90,224.36 L 599.75,225.43 L 598.72,225.79 L 597.10,226.13 L 596.76,226.17 L 596.30,226.15 L 596.00,225.93 L 596.00,225.76 L 596.31,225.42 L 596.52,225.25 L 597.19,224.92 L 597.56,224.75 L 598.52,224.42 L 599.04,224.27 L 600.23,223.97 L 601.47,223.69 L 604.37,223.28 L 608.83,223.01 L 609.60,223.00 L 610.87,222.93 L 611.46,222.89 L 612.37,222.73 L 612.78,222.64 L 613.32,222.39 L 613.55,222.26 L 613.73,221.92 L 613.78,221.75 L 613.60,221.33 L 613.46,221.11 L 612.92,220.61 L 612.60,220.36 L 611.69,219.78 L 609.92,218.83 L 609.68,218.71 L 608.97,218.41 L 608.58,218.25 L 607.60,217.87 L 606.55,217.47 L 603.81,216.50 L 602.36,216.00 L 599.08,214.90 L 597.40,214.34 L 593.91,213.21 L 592.17,212.65 L 588.83,211.61 L 587.20,211.11 L 584.34,210.26 L 583.00,209.88 L 580.97,209.34 L 580.53,209.23 L 579.87,209.08 L 579.24,208.99 L 578.89,209.00 L 577.83,208.73 L 576.24,208.07 L 576.00,207.94 L 575.09,207.62 L 574.58,207.45 L 573.25,207.07 L 568.50,205.98 L 566.85,205.65 L 562.94,204.87 L 561.99,204.68 L 560.22,204.32 L 558.00,203.86 L 557.38,203.73 L 555.86,203.46 L 555.07,203.32 L 553.35,203.05 L 548.50,202.41 L 547.81,202.34 L 546.12,202.13 L 545.24,202.02 L 543.34,201.77 L 542.39,201.63 L 540.51,201.35 L 537.96,200.94 L 537.58,200.88 L 536.45,200.75 L 535.83,200.68 L 534.27,200.56 L 533.45,200.49 L 531.53,200.38 L 530.54,200.32 L 528.33,200.21 L 526.06,200.11 L 520.95,199.95 L 512.96,199.80 L 508.00,199.75 L 497.65,200.05 L 492.48,200.25 L 482.43,200.99 L 479.98,201.20 L 475.31,201.69 L 473.01,201.94 L 468.74,202.51 L 466.66,202.81 L 462.91,203.45 L 458.00,204.49 L 457.24,204.67 L 455.39,205.11 L 454.43,205.33 L 452.35,205.81 L 451.31,206.04 L 449.26,206.50 L 446.50,207.09 L 444.85,207.43 L 441.53,208.32 L 440.76,208.54 L 439.44,208.97 L 438.00,209.53 L 437.66,209.70 L 436.72,210.06 L 436.22,210.24 L 435.07,210.59 L 431.53,211.45 L 430.98,211.55 L 429.63,211.85 L 428.93,212.01 L 427.40,212.40 L 423.03,213.66 L 422.59,213.81 L 421.44,214.23 L 420.83,214.46 L 419.37,215.04 L 418.60,215.35 L 416.88,216.06 L 415.99,216.43 L 414.05,217.25 L 412.07,218.09 L 407.69,220.01 L 405.46,221.00 L 400.89,223.06 L 398.62,224.09 L 394.26,226.11 L 392.15,227.10 L 388.42,228.89 L 387.54,229.32 L 385.98,230.09 L 385.23,230.47 L 383.96,231.12 L 383.37,231.44 L 382.44,231.95 L 381.50,232.53 L 380.67,233.12 L 378.43,234.43 L 375.25,235.96 L 374.36,236.31 L 372.95,237.12 L 372.66,237.32 L 372.26,237.68 L 372.00,238.12 L 372.00,238.36 L 371.68,238.74 L 370.92,239.00 L 370.74,239.00 L 369.78,239.46 L 369.22,239.76 L 367.60,240.74 L 366.72,241.28 L 364.59,242.67 L 363.48,243.41 L 361.01,245.10 L 358.47,246.84 L 353.04,250.77 L 351.70,251.75 L 349.12,253.69 L 345.57,256.46 L 344.62,257.22 L 342.83,258.61 L 341.97,259.27 L 340.48,260.37 L 339.79,260.87 L 338.78,261.56 L 337.97,262.00 L 337.86,262.00 L 337.27,262.40 L 336.92,262.66 L 335.90,263.53 L 335.35,264.02 L 333.97,265.30 L 333.24,265.98 L 331.55,267.61 L 330.68,268.46 L 328.76,270.36 L 327.77,271.33 L 325.67,273.45 L 323.54,275.60 L 319.01,280.27 L 316.74,282.63 L 312.32,287.30 L 311.25,288.45 L 309.20,290.65 L 308.20,291.74 L 306.35,293.76 L 305.46,294.75 L 303.88,296.53 L 303.12,297.39 L 301.86,298.87 L 301.27,299.56 L 300.40,300.67 L 299.59,301.84 L 299.33,302.30 L 298.71,303.17 L 297.88,304.03 L 297.69,304.16 L 296.88,305.08 L 296.43,305.62 L 295.21,307.19 L 294.57,308.04 L 293.12,310.03 L 292.38,311.05 L 290.86,313.22 L 290.10,314.31 L 288.67,316.42 L 287.98,317.45 L 286.79,319.28 L 286.25,320.13 L 285.49,321.43 L 285.33,321.71 L 285.13,322.13 L 285.00,322.52 L 285.00,322.69 L 284.67,323.40 L 284.46,323.80 L 283.77,324.89 L 283.39,325.47 L 282.44,326.79 L 280.81,328.88 L 279.66,330.30 L 277.75,333.14 L 277.35,333.79 L 276.75,334.91 L 276.30,336.13 L 276.21,336.70 L 275.61,338.31 L 275.26,339.16 L 274.37,340.91 L 273.91,341.75 L 273.02,343.09 L 272.82,343.37 L 272.46,343.75 L 272.03,344.00 L 271.96,344.00 L 271.82,344.31 L 271.75,344.50 L 271.62,345.14 L 271.37,347.86 L 271.36,348.41 L 271.31,349.30 L 271.30,349.72 L 271.37,350.36 L 271.43,350.66 L 271.77,351.11 L 271.98,351.31 L 272.72,351.60 L 273.15,351.72 L 274.45,351.90 L 275.17,351.97 L 277.16,352.07 L 278.25,352.12 L 281.08,352.18 L 286.42,352.30 L 295.33,352.50 L 298.69,348.00 L 299.61,346.76 L 301.57,343.98 L 302.03,343.31 L 302.84,342.10 L 303.77,340.63 L 304.01,340.23 L 304.77,339.11 L 305.19,338.50 L 306.21,337.08 L 309.65,332.57 L 310.79,331.15 L 313.12,328.02 L 313.66,327.27 L 314.60,325.93 L 315.65,324.34 L 316.16,323.50 L 317.20,322.22 L 317.44,321.95 L 317.86,321.60 L 318.33,321.40 L 318.56,321.42 L 319.26,320.84 L 320.33,319.37 L 320.49,319.08 L 320.96,318.37 L 321.22,317.98 L 321.90,317.08 L 322.63,316.14 L 324.60,313.79 L 325.67,312.54 L 328.21,309.71 L 329.54,308.25 L 332.51,305.10 L 335.54,301.90 L 342.24,295.20 L 343.91,293.56 L 347.23,290.39 L 352.00,285.99 L 352.36,285.67 L 353.26,284.90 L 353.74,284.50 L 354.85,283.58 L 356.02,282.63 L 358.84,280.40 L 360.31,279.25 L 363.52,276.79 L 365.14,275.55 L 368.43,273.08 L 370.06,271.86 L 373.13,269.61 L 374.61,268.53 L 377.16,266.72 L 377.76,266.30 L 378.79,265.59 L 379.28,265.26 L 380.09,264.74 L 380.46,264.50 L 380.99,264.19 L 381.45,264.00 L 381.50,264.00 L 382.17,263.64 L 382.58,263.42 L 383.85,262.68 L 384.54,262.27 L 386.25,261.25 L 389.11,259.50 L 390.11,258.88 L 392.04,257.75 L 392.97,257.21 L 394.62,256.32 L 395.39,255.91 L 396.57,255.36 L 397.62,255.00 L 397.95,255.00 L 398.58,254.76 L 399.17,254.17 L 399.21,254.06 L 399.89,253.59 L 400.31,253.32 L 401.61,252.61 L 402.32,252.23 L 404.06,251.38 L 407.00,250.02 L 409.06,249.10 L 413.77,247.02 L 414.90,246.51 L 416.97,245.60 L 419.50,244.47 L 420.19,244.17 L 421.86,243.47 L 422.73,243.12 L 424.61,242.39 L 425.55,242.04 L 427.39,241.36 L 429.86,240.51 L 431.34,240.03 L 434.43,238.87 L 435.15,238.59 L 436.42,238.06 L 437.86,237.39 L 438.59,237.01 L 440.31,236.41 L 442.50,236.00 L 442.77,235.99 L 443.67,235.87 L 444.16,235.79 L 445.38,235.53 L 449.50,234.42 L 453.41,233.21 L 461.59,231.33 L 463.70,230.90 L 468.11,230.16 L 470.36,229.82 L 475.11,229.24 L 477.54,228.97 L 482.73,228.54 L 485.38,228.34 L 491.08,228.05 L 494.00,227.92 L 500.29,227.75 L 510.50,227.64 L 512.02,227.64 L 514.81,227.63 L 516.17,227.63 L 518.66,227.63 L 521.08,227.64 L 525.17,227.68 L 527.11,227.70 L 530.42,227.79 L 532.00,227.84 L 534.78,228.00 L 537.48,228.18 L 542.37,228.81 L 543.64,229.00 L 546.37,229.47 L 551.00,230.32 L 552.99,230.70 L 556.99,231.49 L 558.95,231.89 L 562.56,232.67 L 564.28,233.04 L 567.11,233.70 L 567.75,233.85 L 568.80,234.12 L 570.00,234.45 L 571.02,234.77 L 572.85,235.29 L 573.74,235.54 L 575.34,235.92 L 576.88,236.28 L 579.36,236.58 L 580.51,236.67 L 582.34,236.45 L 584.58,235.54 L 585.25,235.10 L 586.29,233.99 L 587.00,232.48 L 587.00,232.07 L 587.44,231.43 L 588.51,231.00 L 588.81,231.00 L 589.11,231.19 L 589.22,231.33 L 589.15,231.85 L 589.06,232.16 L 588.58,233.08 L 587.38,235.00 L 586.65,236.10 L 585.01,237.82 L 584.61,238.19 L 583.89,238.68 L 583.01,239.00 L 582.90,239.00 L 582.44,238.94 L 582.17,238.90 L 581.45,238.77 L 580.66,238.62 L 578.45,238.13 L 577.26,237.87 L 574.46,237.19 L 569.90,236.05 L 567.90,235.53 L 564.11,234.60 L 562.24,234.16 L 558.64,233.37 L 555.08,232.60 L 548.09,231.42 L 544.56,230.87 L 537.04,230.02 L 535.09,229.82 L 530.95,229.47 L 524.29,228.98 L 520.96,228.76 L 514.34,228.53 L 511.03,228.44 L 504.45,228.48 L 501.17,228.54 L 494.64,228.85 L 491.38,229.04 L 484.91,229.62 L 481.67,229.94 L 475.25,230.79 L 472.04,231.25 L 465.67,232.37 L 462.50,232.97 L 456.19,234.35 L 453.04,235.08 L 446.79,236.74 L 443.67,237.60 L 437.49,239.52 L 434.40,240.52 L 428.28,242.71 L 425.23,243.84 L 419.18,246.29 L 416.17,247.55 L 410.19,250.27 L 407.21,251.67 L 401.31,254.65 L 398.36,256.18 L 392.54,259.42 L 389.63,261.08 L 383.89,264.59 L 375.36,270.15 L 370.84,273.22 L 362.01,279.99 L 357.63,283.47 L 349.14,290.99 L 344.94,294.84 L 336.87,303.01 L 332.90,307.17 L 325.33,315.89 L 321.62,320.31 L 314.64,329.49 L 311.23,334.13 L 304.92,343.67 L 301.85,348.47 L 296.29,358.27 L 288.89,373.15 L 286.78,377.83 L 283.00,386.88 L 281.19,391.36 L 278.00,400.08 L 276.48,404.41 L 273.85,412.88 L 272.61,417.09 L 270.52,425.42 L 269.55,429.57 L 267.98,437.83 L 267.26,441.97 L 266.19,450.27 L 265.72,454.43 L 265.13,462.86 L 264.75,475.75 L 264.74,477.23 L 264.72,479.88 L 264.70,481.16 L 264.66,483.34 L 264.55,480.71 L 264.52,477.91 L 264.54,476.34 L 264.59,473.10 L 264.64,471.37 L 264.76,467.85 L 264.85,466.04 L 265.25,458.74 L 265.54,455.29 L 265.83,451.90 L 265.99,450.34 L 266.33,447.32 L 266.51,446.00 L 266.72,444.13 L 266.76,443.26 L 266.74,443.01 L 266.65,442.63 L 266.56,442.63 L 266.34,442.75 L 266.19,443.00 L 265.77,443.95 L 265.47,444.87 L 265.33,445.42 L 264.76,447.87 L 264.58,449.14 L 264.13,451.67 L 263.77,452.79 L 263.51,453.15 L 262.91,453.77 L 262.45,453.96 L 261.43,454.30 L 260.70,454.45 L 254.83,455.24 L 252.61,455.32 L 251.26,455.31 L 248.35,455.26 L 246.50,455.19 L 244.67,455.12 L 243.65,455.05 L 243.23,455.00 L 241.75,454.79 L 241.26,454.59 L 240.40,454.12 L 240.10,453.75 L 239.53,452.90 L 239.25,452.29 L 238.33,449.50 L 237.91,447.39 L 237.88,446.55 L 237.81,445.35 L 237.75,444.81 L 237.72,444.67 L 237.65,444.46 L 237.60,444.46 L 237.52,444.56 L 237.47,444.71 L 237.40,445.04 L 237.63,442.73 L 238.17,438.13 L 238.30,437.05 L 238.57,435.08 L 238.96,432.50 L 239.63,428.47 L 241.12,420.76 L 241.88,416.96 L 243.58,409.62 L 244.46,405.99 L 246.41,398.95 L 247.42,395.45 L 249.64,388.60 L 250.79,385.19 L 253.33,378.44 L 254.64,375.07 L 257.51,368.33 L 258.99,364.95 L 262.24,358.14 L 267.56,347.72 L 269.81,343.48 L 274.54,335.26 L 276.95,331.19 L 281.97,323.31 L 284.52,319.41 L 289.83,311.87 L 292.52,308.14 L 298.12,300.95 L 300.95,297.40 L 306.83,290.56 L 309.80,287.18 L 315.95,280.69 L 319.06,277.50 L 325.49,271.37 L 335.44,262.60 L 337.79,260.63 L 342.28,256.99 L 344.50,255.21 L 348.82,251.89 L 353.11,248.64 L 361.57,242.84 L 365.85,240.01 L 374.90,234.66 L 377.24,233.32 L 382.15,230.64 L 390.00,226.55 L 392.06,225.51 L 395.94,223.59 L 397.85,222.66 L 401.51,220.96 L 405.12,219.29 L 412.04,216.43 L 415.51,215.06 L 422.67,212.57 L 424.51,211.96 L 428.35,210.75 L 434.45,208.94 L 437.98,207.93 L 444.99,206.11 L 448.49,205.24 L 455.46,203.71 L 458.94,202.98 L 465.86,201.72 L 469.32,201.13 L 476.22,200.16 L 479.67,199.71 L 486.55,199.02 L 489.99,198.71 L 496.86,198.30 L 500.29,198.14 L 507.16,198.01 L 510.59,197.99 M 280.36,465.00 L 280.04,471.96 L 280.04,471.87 L 280.17,467.04 L 280.43,463.81 M 616.50,438.50 L 623.57,439.05 L 625.10,439.17 L 627.98,439.68 L 629.39,439.98 L 632.03,440.85 L 633.31,441.33 L 635.71,442.56 L 636.88,443.23 L 639.05,444.83 L 640.11,445.68 L 642.04,447.65 L 642.98,448.68 L 644.69,451.03 L 645.52,452.25 L 647.01,454.98 L 649.00,459.49 L 649.21,460.04 L 649.48,460.85 L 649.60,461.21 L 649.70,461.66 L 649.73,461.84 L 649.67,461.93 L 649.62,461.93 L 649.39,461.68 L 649.25,461.51 L 648.87,460.91 L 648.66,460.58 L 648.13,459.65 L 647.85,459.15 L 647.18,457.91 L 646.03,455.70 L 645.50,454.67 L 644.40,452.83 L 643.84,451.94 L 642.69,450.40 L 642.11,449.66 L 640.93,448.44 L 639.15,447.00 L 638.14,446.35 L 635.98,444.82 L 635.47,444.45 L 634.56,443.77 L 633.50,442.93 L 633.22,442.70 L 632.32,442.25 L 631.83,442.04 L 630.60,441.64 L 629.31,441.26 L 626.26,440.73 L 624.73,440.51 L 621.96,440.40 L 621.33,440.41 L 620.28,440.53 L 619.18,440.88 L 618.80,441.11 L 618.15,442.24 L 617.83,442.90 L 617.30,444.78 L 617.05,445.79 L 616.65,448.28 L 616.47,449.58 L 616.43,450.06 L 616.39,446.03 L 616.36,443.63 L 616.32,438.72 L 616.30,436.09 L 616.26,430.73 L 616.24,427.89 L 616.20,422.11 L 616.19,419.08 L 616.15,412.92 L 616.14,409.71 L 616.11,403.22 L 616.10,399.86 L 616.06,386.15 L 616.04,378.94 L 616.02,364.31 L 616.02,356.77 L 616.02,345.75 M 324.04,371.15 L 325.13,371.30 L 327.24,371.94 L 328.26,372.31 L 330.17,373.35 L 331.09,373.92 L 332.70,375.33 L 333.46,376.08 L 334.68,377.83 L 335.95,380.80 L 336.27,381.94 L 336.35,384.24 L 336.31,384.84 L 336.07,386.13 L 335.93,386.80 L 335.44,388.28 L 335.17,389.05 L 334.41,390.78 L 334.00,391.68 L 332.95,393.73 L 332.39,394.80 L 331.03,397.23 L 328.59,401.39 L 326.74,404.49 L 323.37,410.98 L 321.74,414.26 L 318.82,421.06 L 317.42,424.49 L 314.97,431.50 L 313.81,435.03 L 311.87,442.17 L 310.96,445.75 L 309.53,452.94 L 308.89,456.53 L 308.31,461.22 L 308.50,459.46 L 309.20,453.85 L 309.71,450.98 L 310.83,445.16 L 311.57,442.00 L 311.86,440.65 L 311.91,440.17 L 311.85,440.13 L 311.66,440.18 L 311.46,440.39 L 310.98,440.94 L 310.61,441.39 L 309.44,442.98 L 308.86,443.91 L 308.78,444.15 L 308.44,444.41 L 308.00,444.49 L 307.70,444.48 L 306.32,444.33 L 305.50,444.07 L 303.78,443.61 L 302.23,443.25 L 301.32,443.05 L 297.43,442.26 L 295.50,441.93 L 292.68,441.39 L 290.94,441.00 L 290.19,440.80 L 288.79,440.41 L 288.29,440.23 L 287.42,439.88 L 287.25,439.75 L 286.76,439.08 L 286.46,438.40 L 286.34,437.98 L 285.93,436.13 L 285.90,435.13 L 285.80,431.50 L 285.00,434.05 L 286.07,429.23 L 286.88,426.12 L 288.81,419.91 L 289.81,416.81 L 292.04,410.74 L 293.18,407.73 L 295.62,401.96 L 296.86,399.13 L 299.44,393.85 L 300.73,391.28 L 303.35,386.64 L 304.66,384.42 L 307.24,380.61 L 307.88,379.71 L 309.13,378.10 L 309.76,377.33 L 310.97,375.99 L 311.57,375.35 L 312.74,374.30 L 314.41,373.05 L 315.39,372.45 L 317.49,371.65 L 318.55,371.32 L 320.75,371.04 L 321.85,370.95 M 329.57,437.16 L 328.67,439.89 L 327.32,444.16 L 328.13,441.11 L 330.67,433.89 L 331.39,432.31 M 352.56,413.11 L 353.38,413.19 L 354.70,413.56 L 355.33,413.79 L 356.52,414.55 L 357.33,415.23 L 358.98,418.47 L 359.98,420.68 L 360.46,422.05 L 360.62,422.69 L 360.88,423.93 L 360.92,424.49 L 360.96,425.56 L 360.89,426.03 L 360.70,426.91 L 360.52,427.28 L 360.11,427.96 L 359.82,428.21 L 359.19,428.67 L 358.80,428.80 L 357.95,429.00 L 357.45,429.00 L 355.64,429.26 L 354.72,429.64 L 354.57,429.88 L 353.94,430.28 L 353.15,430.56 L 352.61,430.70 L 350.14,431.25 L 348.66,431.44 L 345.22,431.64 L 343.17,431.54 L 342.27,431.37 L 340.55,430.97 L 339.84,430.66 L 338.50,429.97 L 337.98,429.54 L 337.04,428.60 L 336.72,428.04 L 336.21,426.87 L 336.13,426.21 L 336.07,424.84 L 336.22,424.08 L 336.65,422.52 L 337.06,421.68 L 337.61,420.51 L 337.77,420.10 L 337.74,420.08 L 337.61,420.17 L 337.41,420.39 L 336.95,420.95 L 336.59,421.40 L 336.29,421.86 L 336.87,420.85 L 337.39,419.99 L 338.41,418.52 L 338.92,417.82 L 339.95,416.66 L 340.47,416.11 L 341.55,415.23 L 342.10,414.82 L 343.25,414.19 L 343.85,413.91 L 345.13,413.50 L 345.78,413.33 L 347.22,413.12 L 349.59,413.00 L 350.78,413.00 M 362.52,421.94 L 362.69,422.62 L 362.70,422.94 L 362.61,422.39 L 362.48,421.82 M 694.83,371.54 L 695.50,371.99 L 695.56,372.10 L 695.41,372.35 L 695.29,372.48 L 694.82,372.74 L 692.52,373.43 L 691.98,373.53 L 690.83,373.96 L 690.24,374.21 L 689.04,374.90 L 685.53,377.79 L 684.84,378.52 L 683.74,379.84 L 683.24,380.49 L 682.55,381.76 L 682.27,382.41 L 682.04,383.82 L 681.99,384.56 L 682.26,386.29 L 682.47,387.21 L 683.28,389.42 L 683.75,390.61 L 685.14,393.49 L 685.52,394.26 L 686.40,395.96 L 686.86,396.84 L 687.90,398.76 L 688.44,399.76 L 689.65,401.93 L 691.64,405.50 L 692.79,407.55 L 694.64,411.06 L 695.06,411.89 L 695.79,413.37 L 696.13,414.09 L 696.69,415.35 L 696.95,415.95 L 697.35,416.97 L 697.53,417.46 L 697.75,418.23 L 697.84,418.59 L 697.89,419.11 L 697.75,419.58 L 697.68,419.65 L 697.32,419.29 L 697.10,419.03 L 696.52,418.10 L 696.20,417.57 L 695.46,416.20 L 695.08,415.48 L 694.27,413.80 L 693.86,412.93 L 692.71,410.65 L 692.10,409.44 L 690.66,406.72 L 689.93,405.34 L 688.39,402.52 L 686.15,398.54 L 685.62,397.62 L 684.71,395.99 L 684.28,395.21 L 683.56,393.83 L 682.87,392.51 L 681.98,390.38 L 681.61,389.36 L 681.21,387.56 L 681.00,384.78 L 681.00,383.77 L 681.12,382.19 L 681.22,381.45 L 681.60,380.21 L 681.84,379.60 L 682.59,378.42 L 684.25,376.43 L 685.04,375.58 L 687.18,374.05 L 688.30,373.34 L 690.65,372.27 L 691.79,371.82 L 693.72,371.47 L 694.15,371.43 M 740.87,399.15 L 741.00,399.30 L 741.34,399.93 L 741.97,401.42 L 742.25,402.17 L 742.83,404.33 L 743.11,405.46 L 743.57,407.83 L 743.78,408.96 L 743.99,410.77 L 744.02,411.15 L 744.01,411.67 L 743.88,412.00 L 743.83,412.00 L 743.59,411.52 L 743.45,411.20 L 743.08,410.20 L 742.89,409.65 L 742.43,408.26 L 742.20,407.52 L 741.70,405.88 L 741.47,405.11 L 741.11,403.71 L 740.95,403.04 L 740.71,401.87 L 740.61,401.33 L 740.49,400.44 L 740.45,400.03 L 740.45,399.46 L 740.46,399.22 L 740.57,399.01 L 740.65,398.96 M 610.31,241.60 L 613.00,243.55 L 615.50,246.05 L 615.50,246.49 L 613.25,244.01 L 610.38,241.70 L 609.59,241.25 M 604.29,240.51 L 603.62,240.89 L 602.93,241.31 L 602.53,241.60 L 601.70,242.24 L 601.21,242.65 L 600.20,243.53 L 599.60,244.07 L 598.34,245.22 L 597.60,245.91 L 598.34,245.22 L 599.61,244.06 L 600.20,243.52 L 601.22,242.64 L 601.71,242.23 L 602.54,241.60 L 602.93,241.30 L 603.63,240.88 L 604.29,240.50 L 604.54,240.45 M 608.21,240.59 L 608.75,240.85 L 607.94,240.54 M 361.05,431.06 L 361.43,429.98 L 362.10,427.92 L 362.31,427.02 L 362.65,425.29 L 362.70,424.53 L 362.72,423.31 L 362.75,424.11 L 362.74,424.88 L 362.44,426.63 L 362.24,427.55 L 361.57,429.66 L 361.18,430.76 L 360.14,433.32 L 358.16,437.76 L 360.04,433.53 Z" fill="rgba(198,208,98,1)"/>
<path d="M 285.90,435.13 L 285.93,436.13 L 286.34,437.98 L 286.46,438.40 L 286.76,439.08 L 287.25,439.75 L 287.42,439.88 L 288.29,440.23 L 288.79,440.41 L 290.19,440.80 L 290.94,441.00 L 292.68,441.39 L 295.50,441.93 L 297.43,442.26 L 301.32,443.05 L 302.23,443.25 L 303.78,443.61 L 305.50,444.07 L 306.32,444.33 L 307.70,444.48 L 308.00,444.49 L 308.44,444.41 L 308.78,444.15 L 308.86,443.91 L 309.44,442.98 L 310.61,441.39 L 310.98,440.94 L 311.46,440.39 L 311.66,440.18 L 311.85,440.13 L 311.91,440.17 L 311.86,440.65 L 311.57,442.00 L 310.83,445.16 L 309.71,450.98 L 309.20,453.85 L 308.50,459.46 L 308.19,462.28 L 307.85,468.20 L 307.79,469.73 L 307.72,472.92 L 307.69,478.00 L 307.71,481.94 L 308.09,489.56 L 308.35,493.33 L 309.22,500.69 L 309.72,504.35 L 311.12,511.55 L 311.88,515.14 L 313.82,522.26 L 314.86,525.83 L 317.37,532.98 L 318.70,536.56 L 321.80,543.83 L 323.43,547.48 L 327.17,554.96 L 333.50,566.50 L 334.51,568.24 L 335.86,571.41 L 336.42,572.96 L 336.90,575.85 L 337.04,577.27 L 336.66,579.99 L 335.14,584.02 L 334.72,584.79 L 333.69,586.19 L 333.14,586.86 L 331.89,588.02 L 331.24,588.57 L 329.82,589.49 L 329.09,589.92 L 327.56,590.57 L 326.78,590.86 L 325.18,591.22 L 324.38,591.36 L 322.77,591.41 L 321.97,591.40 L 320.41,591.13 L 319.64,590.95 L 318.17,590.33 L 317.56,590.02 L 316.33,589.20 L 315.72,588.75 L 314.48,587.62 L 313.86,587.01 L 312.58,585.53 L 311.93,584.74 L 310.58,582.87 L 309.90,581.88 L 308.47,579.59 L 307.73,578.39 L 306.18,575.64 L 305.39,574.21 L 303.70,570.96 L 300.98,565.50 L 299.15,561.74 L 295.87,554.34 L 294.30,550.66 L 291.52,543.39 L 290.20,539.76 L 287.91,532.54 L 286.82,528.92 L 285.00,521.69 L 284.14,518.06 L 282.78,510.75 L 282.15,507.07 L 281.22,499.61 L 280.81,495.86 L 280.30,488.19 L 280.00,476.38 L 280.00,472.77 L 280.36,465.00 L 280.59,461.10 L 281.34,453.46 L 281.55,451.60 L 282.02,448.06 L 282.26,446.34 L 282.79,443.16 L 283.06,441.62 L 283.63,438.91 L 284.53,435.51 L 285.80,431.50 M 359.51,417.06 L 360.09,417.64 L 361.01,418.77 L 361.43,419.34 L 362.05,420.51 L 362.32,421.11 L 362.61,422.39 L 362.72,423.05 L 362.70,424.53 L 362.65,425.29 L 362.31,427.02 L 362.10,427.92 L 361.43,429.98 L 361.05,431.06 L 360.04,433.53 L 358.16,437.76 L 357.13,439.96 L 355.39,443.89 L 354.56,445.79 L 353.19,449.24 L 352.54,450.92 L 351.50,454.06 L 351.01,455.60 L 350.26,458.61 L 349.91,460.12 L 349.41,463.17 L 349.18,464.72 L 348.88,468.00 L 348.76,469.68 L 348.63,473.35 L 348.58,479.50 L 348.59,481.71 L 348.70,485.71 L 348.77,487.65 L 349.02,491.20 L 349.16,492.94 L 349.58,496.17 L 349.81,497.75 L 350.42,500.79 L 350.75,502.30 L 351.59,505.28 L 352.04,506.77 L 353.14,509.82 L 353.72,511.36 L 355.09,514.61 L 357.51,519.84 L 358.12,521.12 L 359.25,523.68 L 359.79,524.93 L 360.68,527.22 L 361.09,528.30 L 361.64,530.07 L 362.00,531.84 L 362.00,532.67 L 361.46,534.62 L 361.11,535.61 L 360.02,537.63 L 359.43,538.63 L 357.97,540.43 L 355.59,542.54 L 354.82,543.03 L 352.80,543.79 L 351.74,544.13 L 349.43,544.51 L 348.27,544.66 L 346.07,544.63 L 345.03,544.56 L 343.36,544.06 L 342.50,543.69 L 340.72,542.22 L 339.83,541.36 L 338.03,538.99 L 337.13,537.71 L 335.34,534.56 L 334.45,532.90 L 332.72,529.08 L 331.87,527.10 L 330.25,522.72 L 329.46,520.47 L 328.00,515.64 L 327.29,513.18 L 326.03,508.01 L 324.43,500.00 L 324.12,498.22 L 323.66,494.20 L 323.46,492.13 L 323.20,487.66 L 323.10,485.39 L 323.03,480.66 L 323.02,478.27 L 323.15,473.45 L 323.23,471.04 L 323.54,466.31 L 323.71,463.97 L 324.19,459.49 L 324.46,457.31 L 325.11,453.28 L 326.26,447.93 L 326.94,445.36 L 328.67,439.89 L 329.57,437.16 L 331.51,431.97 L 331.99,430.73 L 332.94,428.44 L 333.41,427.34 L 334.31,425.40 L 334.74,424.49 L 335.54,423.00 L 336.59,421.40 L 336.95,420.95 L 337.41,420.39 L 337.61,420.17 L 337.74,420.08 L 337.77,420.10 L 337.61,420.51 L 337.06,421.68 L 336.65,422.52 L 336.22,424.08 L 336.07,424.84 L 336.13,426.21 L 336.21,426.87 L 336.72,428.04 L 337.04,428.60 L 337.98,429.54 L 338.50,429.97 L 339.84,430.66 L 340.55,430.97 L 342.27,431.37 L 343.17,431.54 L 345.22,431.64 L 348.66,431.44 L 350.14,431.25 L 352.61,430.70 L 353.15,430.56 L 353.94,430.28 L 354.57,429.88 L 354.72,429.64 L 355.64,429.26 L 357.45,429.00 L 357.95,429.00 L 358.80,428.80 L 359.19,428.67 L 359.82,428.21 L 360.11,427.96 L 360.52,427.28 L 360.70,426.91 L 360.89,426.03 L 360.96,425.56 L 360.92,424.49 L 360.88,423.93 L 360.62,422.69 L 360.46,422.05 L 359.98,420.68 L 358.98,418.47 L 356.97,414.51 M 386.74,438.45 L 388.00,438.74 L 390.16,439.73 L 391.17,440.29 L 392.80,441.77 L 393.55,442.57 L 394.62,444.48 L 395.08,445.48 L 395.57,447.77 L 395.74,448.95 L 395.63,451.55 L 395.49,452.88 L 394.74,455.74 L 392.87,460.25 L 392.07,461.82 L 390.76,465.10 L 390.16,466.77 L 389.25,470.24 L 388.84,472.00 L 388.33,475.64 L 388.01,481.27 L 388.01,482.62 L 388.16,485.01 L 388.27,486.18 L 388.72,488.51 L 388.98,489.70 L 389.80,492.36 L 391.55,497.14 L 392.06,498.44 L 392.88,500.72 L 393.26,501.80 L 393.82,503.69 L 394.06,504.60 L 394.35,506.17 L 394.46,506.93 L 394.48,508.25 L 394.45,508.88 L 394.19,510.02 L 394.03,510.57 L 393.50,511.58 L 393.20,512.07 L 392.38,513.03 L 390.85,514.47 L 390.32,514.92 L 389.12,515.65 L 388.51,515.99 L 387.18,516.49 L 385.84,516.93 L 382.97,517.14 L 381.53,517.13 L 378.73,516.44 L 378.06,516.21 L 376.78,515.57 L 376.16,515.23 L 375.03,514.37 L 374.19,513.67 L 372.65,511.93 L 371.91,511.01 L 370.57,508.87 L 369.92,507.75 L 368.79,505.21 L 368.24,503.89 L 367.31,500.99 L 366.87,499.49 L 366.16,496.22 L 365.83,494.55 L 365.33,490.95 L 365.11,489.12 L 364.83,485.20 L 364.68,479.00 L 364.69,476.05 L 365.05,470.46 L 365.29,467.72 L 366.07,462.63 L 366.51,460.15 L 367.68,455.65 L 368.31,453.48 L 369.82,449.64 L 370.62,447.82 L 372.44,444.75 L 373.38,443.31 L 375.47,441.08 L 376.54,440.09 L 378.87,438.79 L 379.46,438.53 L 380.68,438.20 L 382.57,438.00 L 384.08,438.00 M 424.03,459.27 L 424.92,459.36 L 426.67,459.72 L 428.41,460.15 L 431.68,461.77 L 432.47,462.23 L 433.97,463.34 L 434.69,463.92 L 436.04,465.26 L 436.69,465.95 L 437.87,467.52 L 438.43,468.33 L 439.40,470.11 L 439.86,471.03 L 440.59,473.02 L 441.41,476.24 L 441.58,477.20 L 441.63,479.20 L 441.60,480.21 L 441.28,482.25 L 441.07,483.27 L 440.42,485.29 L 440.05,486.28 L 439.09,488.20 L 438.58,489.14 L 437.36,490.89 L 436.73,491.74 L 435.28,493.27 L 434.54,493.99 L 432.91,495.22 L 430.30,496.65 L 429.13,497.14 L 426.37,497.69 L 424.94,497.89 L 421.92,497.89 L 420.42,497.82 L 417.52,497.29 L 416.12,496.96 L 413.69,495.90 L 413.15,495.62 L 411.96,494.75 L 411.35,494.28 L 410.13,493.14 L 406.94,489.25 L 406.34,488.29 L 405.46,486.66 L 405.07,485.87 L 404.56,484.33 L 404.34,483.54 L 404.12,481.76 L 404.00,478.48 L 404.00,477.18 L 404.12,475.16 L 404.20,474.22 L 404.56,472.62 L 404.78,471.85 L 405.49,470.32 L 407.05,467.74 L 407.66,466.81 L 409.01,465.20 L 409.70,464.44 L 411.20,463.13 L 411.96,462.52 L 413.57,461.51 L 414.39,461.04 L 416.08,460.32 L 416.94,459.99 L 418.69,459.56 L 419.57,459.37 L 421.36,459.21 L 422.25,459.16 M 266.65,442.63 L 266.74,443.01 L 266.76,443.26 L 266.72,444.13 L 266.51,446.00 L 266.33,447.32 L 265.99,450.34 L 265.83,451.90 L 265.54,455.29 L 265.25,458.74 L 264.85,466.04 L 264.76,467.85 L 264.64,471.37 L 264.59,473.10 L 264.54,476.34 L 264.52,477.91 L 264.55,480.71 L 264.69,484.25 L 264.78,485.52 L 264.93,487.57 L 264.99,488.53 L 265.01,490.00 L 265.00,490.67 L 264.83,491.61 L 264.71,492.02 L 264.25,492.49 L 263.98,492.67 L 263.15,492.72 L 262.69,492.69 L 261.41,492.38 L 260.71,492.18 L 258.90,491.55 L 257.92,491.20 L 255.50,490.32 L 254.54,489.97 L 252.27,489.20 L 251.10,488.81 L 248.65,488.03 L 247.42,487.65 L 245.08,486.95 L 242.00,486.09 L 235.50,484.38 L 235.82,468.79 L 235.89,465.22 L 236.22,458.19 L 236.31,456.51 L 236.52,453.41 L 236.63,451.93 L 236.85,449.37 L 236.96,448.19 L 237.17,446.37 L 237.28,445.58 L 237.47,444.71 L 237.52,444.56 L 237.60,444.46 L 237.65,444.46 L 237.72,444.67 L 237.75,444.81 L 237.81,445.35 L 237.88,446.55 L 237.91,447.39 L 238.33,449.50 L 239.25,452.29 L 239.53,452.90 L 240.10,453.75 L 240.40,454.12 L 241.26,454.59 L 241.75,454.79 L 243.23,455.00 L 243.65,455.05 L 244.67,455.12 L 246.50,455.19 L 248.35,455.26 L 251.26,455.31 L 252.61,455.32 L 254.83,455.24 L 260.70,454.45 L 261.43,454.30 L 262.45,453.96 L 262.91,453.77 L 263.51,453.15 L 263.77,452.79 L 264.13,451.67 L 264.58,449.14 L 264.76,447.87 L 265.33,445.42 L 265.47,444.87 L 265.77,443.95 L 266.19,443.00 L 266.34,442.75 L 266.56,442.63 Z" fill="rgba(244,94,181,1)"/>
<path d="M 690.00,835.14 L 687.50,834.41 L 687.50,796.45 L 687.50,758.50 L 692.75,758.20 L 693.94,758.13 L 695.61,758.11 L 696.35,758.12 L 697.34,758.34 L 697.77,758.49 L 698.37,759.05 L 699.13,760.38 L 700.26,762.87 L 702.97,760.86 L 703.93,760.15 L 706.17,759.07 L 707.34,758.59 L 709.90,757.98 L 711.21,757.74 L 713.96,757.63 L 718.19,758.04 L 719.81,758.34 L 722.51,759.11 L 723.79,759.53 L 726.03,760.63 L 727.12,761.23 L 729.16,762.81 L 732.27,765.88 L 733.58,767.33 L 735.58,769.97 L 736.49,771.27 L 737.79,773.87 L 738.37,775.20 L 739.12,778.08 L 739.78,783.11 L 739.93,785.21 L 739.65,789.26 L 739.42,791.26 L 738.43,795.03 L 737.86,796.87 L 736.24,800.27 L 735.36,801.92 L 733.19,804.86 L 732.03,806.26 L 729.37,808.66 L 727.99,809.77 L 724.91,811.53 L 723.33,812.31 L 719.92,813.34 L 714.50,813.96 L 712.84,813.95 L 709.52,813.52 L 708.76,813.39 L 707.44,813.06 L 706.00,812.50 L 705.41,812.16 L 704.42,811.64 L 703.96,811.42 L 703.21,811.18 L 702.87,811.10 L 702.33,811.19 L 702.08,811.29 L 701.71,811.78 L 701.55,812.09 L 701.32,813.04 L 701.23,813.58 L 701.11,815.06 L 701.06,815.87 L 701.01,817.93 L 700.98,821.75 L 700.98,823.23 L 700.92,826.02 L 700.88,827.36 L 700.76,829.68 L 700.69,830.76 L 700.52,832.36 L 700.48,832.70 L 700.38,833.21 L 700.23,833.66 L 700.11,833.85 L 699.65,834.20 L 699.38,834.36 L 698.67,834.66 L 697.92,834.94 L 695.94,835.31 L 694.92,835.46 L 692.80,835.51 L 691.77,835.48 M 718.92,799.25 L 720.09,798.65 L 722.01,796.90 L 722.90,795.95 L 724.22,793.67 L 724.82,792.48 L 725.56,789.85 L 725.85,788.51 L 726.01,785.74 L 726.01,784.35 L 725.57,781.63 L 725.28,780.30 L 724.26,777.82 L 723.67,776.64 L 722.06,774.61 L 718.97,772.28 L 718.18,771.88 L 716.50,771.37 L 715.66,771.16 L 713.92,771.02 L 713.06,770.99 L 711.32,771.20 L 710.46,771.34 L 708.80,771.87 L 707.98,772.17 L 706.44,772.99 L 705.69,773.44 L 704.34,774.54 L 703.70,775.12 L 702.61,776.48 L 701.32,778.76 L 701.08,779.35 L 700.72,780.70 L 700.55,781.40 L 700.35,782.92 L 700.19,784.47 L 700.32,787.76 L 700.46,789.39 L 701.16,792.40 L 701.37,793.10 L 701.88,794.36 L 702.79,795.94 L 703.26,796.58 L 704.73,797.78 L 705.52,798.36 L 707.43,799.36 L 708.41,799.82 L 710.49,800.48 L 713.50,800.94 L 713.77,800.95 L 714.55,800.83 L 714.96,800.74 L 715.92,800.47 L 716.90,800.16 M 289.90,812.38 L 289.80,812.26 L 289.60,811.70 L 289.51,811.37 L 289.33,810.42 L 289.24,809.90 L 289.09,808.59 L 289.01,807.90 L 288.87,806.26 L 288.80,805.41 L 288.68,803.47 L 288.62,802.47 L 288.52,800.26 L 288.43,797.99 L 288.30,792.75 L 288.25,790.03 L 288.21,784.07 L 288.20,781.03 L 288.25,774.58 L 288.77,754.51 L 289.50,736.52 L 292.42,735.13 L 293.46,734.63 L 295.48,734.26 L 298.89,734.61 L 299.32,734.72 L 300.07,734.99 L 300.44,735.14 L 301.17,735.64 L 301.54,735.94 L 302.36,736.86 L 302.80,737.39 L 303.83,738.91 L 304.39,739.77 L 305.76,742.08 L 306.13,742.71 L 306.95,744.16 L 307.37,744.92 L 308.31,746.63 L 308.80,747.52 L 309.89,749.51 L 310.45,750.55 L 311.68,752.85 L 312.32,754.04 L 313.73,756.66 L 316.04,761.00 L 316.98,762.75 L 318.80,766.12 L 319.70,767.78 L 321.41,770.90 L 322.25,772.43 L 323.82,775.23 L 324.58,776.59 L 325.96,779.01 L 326.63,780.16 L 327.79,782.13 L 328.33,783.05 L 329.22,784.49 L 329.63,785.14 L 330.22,785.98 L 330.71,786.50 L 330.78,786.50 L 331.17,786.01 L 331.41,785.68 L 332.09,784.59 L 332.46,783.98 L 333.39,782.36 L 333.89,781.49 L 335.04,779.41 L 335.64,778.31 L 336.98,775.83 L 337.67,774.54 L 339.15,771.73 L 343.97,762.35 L 345.64,759.03 L 348.85,752.81 L 349.63,751.32 L 351.11,748.52 L 351.83,747.16 L 353.15,744.68 L 353.79,743.49 L 354.93,741.42 L 355.48,740.43 L 356.40,738.83 L 356.82,738.09 L 357.48,737.02 L 358.12,736.10 L 358.65,735.53 L 360.18,734.73 L 361.00,734.38 L 362.95,734.06 L 363.96,733.96 L 366.14,734.13 L 369.43,734.98 L 372.00,735.95 L 372.00,774.37 L 372.00,776.50 L 372.00,780.42 L 372.00,782.33 L 371.99,785.82 L 371.99,787.51 L 371.97,790.59 L 371.97,792.08 L 371.95,794.78 L 371.94,796.08 L 371.92,798.43 L 371.90,799.55 L 371.87,801.56 L 371.85,802.53 L 371.81,804.23 L 371.79,805.05 L 371.74,806.47 L 371.68,807.83 L 371.54,809.80 L 371.46,810.68 L 371.26,811.86 L 371.15,812.37 L 370.89,812.96 L 370.42,813.39 L 370.14,813.50 L 369.36,813.67 L 368.94,813.75 L 367.94,813.85 L 366.90,813.95 L 364.56,813.96 L 363.40,813.94 L 361.32,813.74 L 360.85,813.67 L 360.09,813.51 L 359.28,813.20 L 359.17,813.13 L 358.98,812.72 L 358.88,812.48 L 358.71,811.70 L 358.63,811.25 L 358.50,810.06 L 358.43,809.41 L 358.32,807.78 L 358.27,806.90 L 358.18,804.79 L 358.14,803.68 L 358.08,801.06 L 358.05,799.69 L 358.00,796.53 L 357.96,791.15 L 357.95,789.22 L 357.92,785.81 L 357.90,784.18 L 357.85,781.34 L 357.82,779.99 L 357.75,777.69 L 357.71,776.60 L 357.62,774.82 L 357.57,773.98 L 357.45,772.68 L 357.39,772.09 L 357.25,771.24 L 357.17,770.87 L 357.00,770.45 L 356.71,770.26 L 356.63,770.29 L 356.30,770.70 L 356.10,770.96 L 355.55,771.80 L 355.25,772.28 L 354.51,773.50 L 354.12,774.16 L 353.22,775.72 L 352.75,776.54 L 351.72,778.38 L 351.20,779.34 L 350.06,781.42 L 346.42,788.31 L 345.16,790.74 L 342.77,795.29 L 342.19,796.38 L 341.10,798.43 L 340.56,799.42 L 339.59,801.23 L 339.12,802.10 L 338.28,803.61 L 337.88,804.33 L 337.22,805.50 L 336.91,806.04 L 336.45,806.82 L 336.01,807.49 L 335.83,807.70 L 335.22,808.09 L 334.88,808.27 L 334.01,808.57 L 330.88,809.00 L 330.03,809.00 L 328.74,808.86 L 328.15,808.76 L 327.15,808.28 L 326.67,807.99 L 325.69,807.01 L 323.96,804.79 L 323.75,804.50 L 323.18,803.63 L 322.88,803.15 L 322.14,801.94 L 321.76,801.30 L 320.88,799.81 L 320.43,799.04 L 319.45,797.32 L 318.44,795.55 L 316.24,791.55 L 312.89,785.29 L 311.78,783.18 L 309.70,779.35 L 308.69,777.52 L 306.95,774.49 L 306.54,773.80 L 305.83,772.62 L 305.49,772.07 L 304.93,771.21 L 304.67,770.82 L 304.29,770.31 L 303.93,770.00 L 303.87,770.00 L 303.74,770.39 L 303.67,770.65 L 303.56,771.53 L 303.50,772.03 L 303.40,773.36 L 303.35,774.08 L 303.26,775.82 L 303.22,776.73 L 303.15,778.85 L 303.12,779.95 L 303.07,782.39 L 303.05,783.66 L 303.02,786.40 L 303.00,790.80 L 303.00,792.66 L 302.98,795.97 L 302.97,797.57 L 302.93,800.38 L 302.91,801.73 L 302.85,804.06 L 302.81,805.17 L 302.72,807.05 L 302.67,807.93 L 302.56,809.38 L 302.49,810.05 L 302.35,811.09 L 302.27,811.56 L 302.10,812.22 L 301.80,812.80 L 301.57,813.03 L 300.83,813.38 L 300.42,813.55 L 299.40,813.77 L 298.32,813.97 L 295.77,814.00 L 294.50,813.96 L 292.18,813.52 L 291.66,813.38 L 290.80,813.03 L 290.41,812.84 M 399.63,812.53 L 398.07,811.98 L 395.18,810.41 L 393.78,809.56 L 391.23,807.46 L 390.01,806.36 L 387.86,803.82 L 386.84,802.50 L 385.12,799.60 L 384.33,798.11 L 383.09,794.94 L 382.54,793.32 L 381.84,789.95 L 381.55,788.25 L 381.42,784.77 L 381.91,779.52 L 382.22,777.86 L 382.97,775.03 L 383.38,773.69 L 384.41,771.34 L 384.98,770.21 L 386.40,768.13 L 389.09,765.07 L 389.98,764.18 L 391.86,762.62 L 392.82,761.88 L 394.83,760.63 L 395.85,760.04 L 397.98,759.10 L 399.05,758.66 L 401.27,758.02 L 402.40,757.74 L 404.71,757.42 L 405.87,757.30 L 408.25,757.29 L 409.45,757.32 L 411.88,757.64 L 415.58,758.47 L 416.76,758.81 L 418.72,759.54 L 419.65,759.92 L 421.33,760.88 L 422.15,761.40 L 423.81,762.74 L 426.56,765.37 L 427.97,766.81 L 430.14,769.69 L 431.13,771.14 L 432.50,774.11 L 433.09,775.62 L 433.70,778.82 L 433.82,784.02 L 433.74,785.10 L 433.56,786.56 L 433.45,787.19 L 433.00,787.97 L 432.73,788.30 L 431.78,788.70 L 429.50,789.18 L 429.22,789.23 L 428.40,789.32 L 427.94,789.37 L 426.78,789.46 L 425.56,789.55 L 422.34,789.69 L 420.64,789.76 L 416.79,789.86 L 410.75,789.94 L 408.74,789.95 L 405.42,789.98 L 403.87,790.01 L 401.42,790.10 L 400.29,790.16 L 398.61,790.34 L 397.86,790.45 L 396.88,790.77 L 396.46,790.95 L 396.08,791.43 L 395.96,791.70 L 396.11,792.38 L 396.23,792.76 L 396.82,793.68 L 398.09,795.39 L 398.67,796.13 L 399.98,797.39 L 400.65,797.98 L 402.13,798.95 L 402.89,799.40 L 404.52,800.07 L 405.35,800.36 L 407.12,800.73 L 408.02,800.88 L 409.92,800.94 L 410.88,800.94 L 412.88,800.70 L 413.89,800.54 L 415.98,799.99 L 419.21,798.82 L 424.28,796.63 L 427.14,799.83 L 427.93,800.71 L 429.16,802.66 L 429.42,803.12 L 429.77,803.96 L 430.00,804.96 L 430.00,805.25 L 429.77,805.88 L 429.63,806.21 L 429.14,806.92 L 428.59,807.64 L 426.88,809.15 L 425.94,809.89 L 423.70,811.26 L 420.10,812.86 L 419.53,813.05 L 418.09,813.36 L 417.34,813.50 L 415.63,813.70 L 413.86,813.87 L 409.92,813.91 L 407.94,813.88 L 404.18,813.51 L 403.29,813.40 L 401.68,813.09 L 400.91,812.93 M 420.00,778.08 L 420.00,777.95 L 419.80,777.48 L 419.67,777.22 L 419.26,776.54 L 417.47,774.15 L 416.94,773.51 L 415.69,772.47 L 415.03,771.98 L 413.59,771.23 L 412.86,770.89 L 411.29,770.45 L 410.49,770.27 L 408.86,770.13 L 408.03,770.10 L 406.39,770.26 L 405.57,770.39 L 403.96,770.87 L 403.18,771.14 L 401.68,771.94 L 399.62,773.47 L 398.98,774.07 L 398.01,775.07 L 397.58,775.55 L 397.06,776.34 L 396.86,776.71 L 396.82,777.31 L 396.87,777.58 L 397.36,778.02 L 397.68,778.21 L 398.74,778.50 L 399.35,778.63 L 401.02,778.80 L 401.93,778.88 L 404.25,778.96 L 408.50,779.00 L 410.09,779.00 L 412.98,778.93 L 414.36,778.88 L 416.64,778.73 L 417.68,778.65 L 419.10,778.44 L 419.39,778.38 L 419.77,778.26 L 419.92,778.20 M 453.53,811.23 L 452.68,810.76 L 451.14,809.72 L 450.39,809.18 L 449.04,807.97 L 448.38,807.34 L 447.18,805.94 L 445.53,803.58 L 442.50,798.66 L 442.21,767.17 L 442.19,765.61 L 442.17,762.71 L 442.16,761.29 L 442.14,758.66 L 442.13,756.09 L 442.12,751.71 L 442.13,749.63 L 442.16,746.17 L 442.17,744.55 L 442.24,741.92 L 442.28,740.69 L 442.38,738.80 L 442.44,737.93 L 442.59,736.67 L 442.67,736.11 L 442.86,735.40 L 443.21,734.85 L 443.44,734.70 L 444.12,734.47 L 444.49,734.36 L 445.38,734.21 L 446.30,734.08 L 448.50,734.05 L 449.60,734.07 L 451.72,734.35 L 454.18,735.10 L 454.66,735.35 L 455.31,735.98 L 455.58,736.37 L 455.88,737.71 L 455.94,738.12 L 456.01,739.18 L 456.03,739.75 L 456.04,741.19 L 456.04,741.97 L 456.01,743.88 L 455.92,747.35 L 455.90,748.12 L 455.86,749.97 L 455.85,750.94 L 455.82,753.15 L 455.79,755.43 L 455.76,760.69 L 455.75,763.39 L 455.75,769.01 L 455.80,777.11 L 456.00,795.72 L 459.00,799.50 L 459.62,800.28 L 460.52,801.62 L 460.92,802.28 L 461.43,803.57 L 461.65,804.24 L 461.88,805.77 L 462.00,808.64 L 462.00,809.44 L 461.94,810.76 L 461.90,811.37 L 461.73,812.33 L 461.63,812.76 L 461.30,813.36 L 461.11,813.62 L 460.58,813.88 L 460.29,813.97 L 459.51,813.91 L 459.09,813.84 L 458.02,813.46 L 457.45,813.24 L 456.05,812.56 L 455.31,812.19 M 486.45,812.67 L 484.95,812.10 L 482.20,810.69 L 480.87,809.95 L 478.46,808.24 L 477.30,807.34 L 475.24,805.33 L 474.26,804.29 L 472.58,802.01 L 471.78,800.83 L 470.48,798.29 L 469.87,796.99 L 468.96,794.21 L 468.56,792.79 L 468.05,789.79 L 467.76,785.07 L 467.77,783.63 L 468.06,780.86 L 468.25,779.49 L 468.88,776.89 L 469.24,775.61 L 470.21,773.19 L 470.74,772.01 L 472.03,769.79 L 472.72,768.71 L 474.33,766.71 L 475.17,765.73 L 477.09,763.97 L 478.08,763.12 L 480.29,761.61 L 483.91,759.64 L 484.72,759.27 L 486.51,758.68 L 487.42,758.40 L 489.38,758.00 L 491.37,757.63 L 495.58,757.48 L 497.69,757.50 L 501.76,758.09 L 502.75,758.29 L 504.60,758.82 L 507.15,759.83 L 507.83,760.16 L 509.28,761.05 L 510.01,761.53 L 511.54,762.68 L 513.08,763.88 L 516.10,766.77 L 517.56,768.25 L 520.03,771.31 L 520.59,772.05 L 521.52,773.49 L 522.56,775.49 L 522.81,776.08 L 523.20,777.50 L 523.38,778.24 L 523.64,779.91 L 523.87,781.63 L 523.94,785.49 L 523.91,787.44 L 523.48,791.30 L 522.25,796.43 L 521.66,798.09 L 519.69,801.42 L 518.61,803.05 L 515.89,806.06 L 514.47,807.50 L 511.35,809.87 L 510.56,810.40 L 508.95,811.30 L 506.56,812.33 L 505.16,812.80 L 501.68,813.43 L 499.89,813.69 L 496.09,813.87 L 494.21,813.90 L 490.71,813.62 L 489.88,813.52 L 488.38,813.24 L 487.66,813.08 M 503.65,798.49 L 504.59,797.88 L 506.23,796.21 L 507.00,795.32 L 508.23,793.23 L 508.79,792.15 L 509.53,789.81 L 510.00,786.20 L 510.00,784.89 L 509.64,782.52 L 509.40,781.37 L 508.53,779.25 L 508.03,778.22 L 506.61,776.29 L 503.83,773.51 L 503.11,772.90 L 501.92,772.07 L 501.34,771.71 L 500.15,771.30 L 499.52,771.15 L 497.93,771.07 L 494.65,771.22 L 493.32,771.31 L 491.38,771.56 L 490.49,771.71 L 489.14,772.18 L 488.49,772.46 L 487.33,773.34 L 485.36,775.31 L 484.61,776.12 L 483.58,777.42 L 483.13,778.06 L 482.57,779.29 L 482.33,779.93 L 482.11,781.47 L 482.00,784.53 L 482.00,786.00 L 482.28,788.58 L 482.47,789.81 L 483.15,791.99 L 483.54,793.03 L 484.64,794.87 L 486.79,797.31 L 487.32,797.79 L 488.53,798.60 L 489.16,798.97 L 490.53,799.57 L 491.93,800.11 L 494.98,800.54 L 496.52,800.65 L 499.55,800.20 L 500.29,800.03 L 501.70,799.52 L 502.39,799.23 M 529.25,813.32 L 528.63,813.19 L 527.66,812.77 L 527.00,812.09 L 527.00,812.01 L 527.08,811.65 L 527.13,811.44 L 527.31,810.84 L 527.51,810.17 L 528.18,808.15 L 528.56,807.04 L 529.55,804.24 L 530.07,802.75 L 531.32,799.30 L 531.97,797.51 L 533.42,793.55 L 534.16,791.53 L 535.77,787.20 L 537.41,782.80 L 540.93,773.49 L 542.69,768.83 L 546.15,759.82 L 546.99,757.64 L 548.59,753.52 L 549.38,751.51 L 550.82,747.85 L 551.52,746.09 L 552.75,743.02 L 553.34,741.57 L 554.31,739.23 L 554.76,738.17 L 555.41,736.69 L 555.56,736.39 L 555.77,735.96 L 555.99,735.61 L 556.35,735.25 L 557.80,734.84 L 558.60,734.67 L 560.52,734.64 L 561.48,734.66 L 563.32,734.99 L 565.35,735.88 L 565.56,736.05 L 566.08,736.78 L 566.35,737.20 L 566.93,738.30 L 568.58,742.33 L 568.69,742.68 L 569.03,743.63 L 569.21,744.14 L 569.66,745.35 L 570.14,746.63 L 571.36,749.77 L 572.00,751.41 L 573.44,754.99 L 575.67,760.41 L 576.04,761.30 L 576.89,763.36 L 577.33,764.42 L 578.28,766.77 L 579.26,769.18 L 581.41,774.54 L 582.49,777.26 L 584.65,782.74 L 587.62,790.38 L 588.52,792.72 L 590.23,797.14 L 591.07,799.28 L 592.53,802.96 L 592.87,803.82 L 593.47,805.32 L 593.76,806.04 L 594.25,807.21 L 594.47,807.76 L 594.82,808.56 L 595.15,809.28 L 595.37,809.69 L 595.62,810.44 L 595.70,810.80 L 595.68,811.43 L 595.64,811.73 L 595.35,812.25 L 595.17,812.50 L 594.62,812.91 L 594.31,813.09 L 593.49,813.39 L 593.05,813.52 L 591.97,813.69 L 591.40,813.77 L 590.06,813.83 L 587.75,813.79 L 581.81,813.50 L 579.30,807.50 L 578.61,805.85 L 577.23,802.90 L 576.91,802.24 L 576.37,801.21 L 575.77,800.25 L 575.59,800.03 L 574.53,799.68 L 574.21,799.60 L 573.36,799.46 L 572.90,799.40 L 571.77,799.29 L 571.18,799.24 L 569.77,799.16 L 569.02,799.12 L 567.31,799.07 L 566.41,799.05 L 564.37,799.02 L 560.94,799.00 L 559.69,799.00 L 557.47,799.02 L 556.41,799.03 L 554.53,799.07 L 553.64,799.09 L 552.09,799.16 L 551.35,799.19 L 550.11,799.29 L 549.52,799.34 L 548.57,799.46 L 548.13,799.52 L 547.44,799.67 L 546.31,800.25 L 546.20,800.42 L 545.80,801.21 L 545.57,801.66 L 545.00,802.90 L 542.98,807.50 L 540.45,813.50 L 535.97,813.64 L 534.74,813.67 L 532.15,813.60 L 531.54,813.57 L 530.48,813.48 L 529.98,813.44 M 569.35,785.25 L 569.39,785.18 L 569.37,784.82 L 569.35,784.61 L 569.21,784.00 L 569.05,783.34 L 568.42,781.42 L 568.07,780.38 L 567.16,777.95 L 566.68,776.70 L 565.62,774.07 L 565.08,772.76 L 564.00,770.25 L 563.46,769.03 L 562.47,766.93 L 562.00,765.96 L 561.24,764.59 L 561.07,764.31 L 560.80,763.93 L 560.50,763.69 L 560.42,763.69 L 560.20,763.91 L 560.08,764.06 L 559.77,764.54 L 559.45,765.09 L 558.63,766.83 L 558.20,767.79 L 557.24,770.11 L 556.76,771.31 L 555.78,773.90 L 555.29,775.20 L 554.40,777.75 L 553.98,778.99 L 553.30,781.21 L 552.99,782.24 L 552.62,783.81 L 552.56,784.14 L 552.50,784.64 L 552.56,785.09 L 552.64,785.23 L 553.44,785.46 L 553.93,785.56 L 555.37,785.73 L 556.15,785.80 L 557.99,785.90 L 558.94,785.95 L 560.96,785.98 L 561.96,785.99 L 563.92,785.96 L 564.87,785.93 L 566.54,785.83 L 567.31,785.77 L 568.46,785.59 L 568.95,785.50 M 603.23,813.16 L 603.11,813.09 L 602.89,812.39 L 602.77,811.95 L 602.56,810.61 L 602.46,809.86 L 602.26,807.96 L 602.16,806.95 L 601.98,804.59 L 601.90,803.36 L 601.74,800.64 L 601.66,799.24 L 601.52,796.25 L 601.39,793.21 L 601.21,786.72 L 601.13,783.48 L 601.07,777.15 L 601.07,775.62 L 601.08,772.70 L 601.09,771.28 L 601.13,768.67 L 601.16,767.41 L 601.25,765.20 L 601.30,764.15 L 601.42,762.42 L 601.49,761.63 L 601.66,760.49 L 601.96,759.54 L 602.19,759.27 L 602.87,758.82 L 603.24,758.62 L 604.13,758.32 L 605.05,758.06 L 607.19,757.98 L 608.26,758.01 L 610.18,758.49 L 610.62,758.64 L 611.35,759.06 L 612.12,759.83 L 612.40,760.27 L 612.84,760.82 L 613.06,761.04 L 613.60,761.14 L 613.91,761.14 L 614.82,760.79 L 616.88,759.76 L 617.57,759.40 L 619.15,758.85 L 619.96,758.60 L 621.73,758.27 L 623.53,758.00 L 627.37,758.08 L 629.28,758.22 L 632.88,759.11 L 633.73,759.37 L 635.28,760.06 L 637.31,761.29 L 640.90,764.02 L 645.64,761.01 L 646.63,760.39 L 648.29,759.49 L 649.09,759.09 L 650.64,758.57 L 651.43,758.35 L 653.20,758.12 L 656.46,758.00 L 658.34,758.00 L 661.57,758.43 L 663.11,758.73 L 665.78,759.82 L 667.06,760.45 L 669.34,762.27 L 672.50,765.94 L 675.50,770.17 L 675.50,791.83 L 675.50,813.50 L 670.17,813.81 L 669.14,813.86 L 667.45,813.93 L 666.67,813.94 L 665.42,813.78 L 664.84,813.66 L 663.96,813.13 L 663.57,812.80 L 663.00,811.72 L 662.74,811.11 L 662.41,809.33 L 662.27,808.34 L 662.12,805.71 L 662.09,805.00 L 662.05,803.37 L 662.03,802.52 L 662.01,800.63 L 662.01,799.64 L 662.00,797.46 L 662.00,793.83 L 662.00,791.62 L 661.99,787.98 L 661.99,786.27 L 661.96,783.52 L 661.94,782.25 L 661.86,780.25 L 661.82,779.33 L 661.68,777.92 L 661.60,777.27 L 661.39,776.30 L 661.27,775.86 L 660.95,775.17 L 659.55,773.45 L 659.09,772.99 L 658.05,772.28 L 657.51,771.95 L 656.37,771.50 L 655.22,771.11 L 652.84,771.11 L 652.25,771.17 L 651.15,771.47 L 650.61,771.66 L 649.62,772.20 L 649.15,772.51 L 648.35,773.29 L 647.42,774.72 L 647.37,774.84 L 647.25,775.46 L 647.19,775.82 L 647.06,776.87 L 647.00,777.45 L 646.87,778.89 L 646.81,779.65 L 646.68,781.41 L 646.56,783.25 L 646.33,787.68 L 646.05,795.00 L 645.50,813.50 L 640.37,813.80 L 639.35,813.86 L 637.67,813.90 L 636.88,813.89 L 635.62,813.70 L 635.03,813.56 L 634.13,812.99 L 633.72,812.64 L 633.12,811.56 L 632.86,810.94 L 632.50,809.21 L 632.34,808.24 L 632.16,805.71 L 632.09,804.34 L 632.02,800.87 L 632.01,799.94 L 632.00,797.88 L 632.00,794.48 L 632.00,791.96 L 631.92,787.50 L 631.87,785.38 L 631.69,781.85 L 631.65,781.03 L 631.53,779.60 L 631.47,778.92 L 631.34,777.79 L 631.27,777.26 L 631.12,776.45 L 630.87,775.61 L 630.52,774.85 L 629.34,773.56 L 628.68,772.97 L 627.06,772.10 L 626.21,771.73 L 624.37,771.38 L 621.62,771.56 L 621.02,771.71 L 620.01,772.14 L 619.53,772.38 L 618.73,773.06 L 618.36,773.45 L 617.75,774.49 L 617.47,775.06 L 617.02,776.55 L 616.82,777.35 L 616.52,779.39 L 616.39,780.48 L 616.21,783.15 L 616.13,784.57 L 616.05,787.98 L 616.00,794.02 L 616.00,796.32 L 615.92,800.56 L 615.87,802.60 L 615.70,806.08 L 615.66,806.88 L 615.55,808.29 L 615.50,808.96 L 615.38,810.07 L 615.31,810.59 L 615.18,811.35 L 614.96,812.07 L 614.76,812.44 L 614.24,813.00 L 613.95,813.25 L 613.16,813.59 L 612.72,813.74 L 611.54,813.90 L 609.21,813.98 L 607.92,813.98 L 605.51,813.74 L 604.97,813.66 L 604.10,813.48 L 603.70,813.38 M 442.00,684.57 L 440.26,684.21 L 436.99,683.38 L 435.38,682.94 L 432.35,681.97 L 430.86,681.46 L 428.05,680.33 L 426.66,679.75 L 424.03,678.44 L 421.44,677.09 L 416.68,673.80 L 409.95,667.87 L 408.75,666.65 L 406.59,664.13 L 405.55,662.86 L 403.72,660.24 L 402.84,658.91 L 401.32,656.15 L 400.60,654.75 L 399.38,651.83 L 398.81,650.35 L 397.90,647.26 L 397.47,645.69 L 396.85,642.40 L 396.57,640.73 L 396.22,637.22 L 396.01,631.69 L 396.01,630.29 L 396.07,627.77 L 396.11,626.54 L 396.27,624.29 L 396.46,622.09 L 397.27,618.05 L 397.76,616.03 L 399.32,611.74 L 399.76,610.61 L 400.83,608.15 L 402.71,604.08 L 403.74,601.92 L 406.29,597.67 L 407.63,595.56 L 410.74,591.47 L 412.36,589.45 L 415.96,585.59 L 417.82,583.69 L 421.83,580.12 L 423.88,578.38 L 428.23,575.17 L 430.44,573.61 L 435.05,570.82 L 437.38,569.48 L 442.18,567.18 L 449.50,564.34 L 451.07,563.83 L 454.43,562.99 L 456.15,562.60 L 459.75,561.99 L 461.57,561.71 L 465.33,561.34 L 467.23,561.19 L 471.06,561.06 L 474.90,560.99 L 482.47,561.58 L 484.32,561.79 L 487.90,562.39 L 493.00,563.56 L 493.08,563.58 L 493.24,563.44 L 493.31,563.33 L 493.44,562.87 L 493.51,562.59 L 493.63,561.73 L 493.68,561.24 L 493.78,559.89 L 493.83,559.15 L 493.92,557.25 L 493.96,556.23 L 494.03,553.69 L 494.06,552.33 L 494.12,549.08 L 494.15,547.36 L 494.19,543.31 L 494.21,541.18 L 494.24,536.27 L 494.26,533.69 L 494.28,527.83 L 494.29,524.77 L 494.29,517.87 L 494.30,516.08 L 494.30,512.29 L 494.30,510.36 L 494.29,506.28 L 494.29,504.21 L 494.29,499.84 L 494.29,497.62 L 494.28,492.95 L 494.28,490.57 L 494.27,485.58 L 494.27,483.05 L 494.25,477.74 L 494.25,475.04 L 494.24,469.40 L 494.23,466.54 L 494.22,460.55 L 494.21,457.52 L 494.19,451.18 L 494.16,441.26 L 494.15,435.60 L 494.12,424.93 L 494.11,419.71 L 494.09,409.90 L 494.09,405.10 L 494.08,396.12 L 494.07,391.73 L 494.07,383.55 L 494.07,379.56 L 494.07,372.15 L 494.08,368.55 L 494.09,361.89 L 494.10,358.65 L 494.12,352.71 L 494.13,349.83 L 494.16,344.59 L 494.18,342.05 L 494.22,337.47 L 494.24,335.26 L 494.29,331.32 L 494.31,329.43 L 494.37,326.10 L 494.40,324.51 L 494.47,321.77 L 494.50,320.47 L 494.58,318.29 L 494.62,317.27 L 494.70,315.61 L 494.75,314.85 L 494.84,313.70 L 495.00,312.52 L 495.32,310.87 L 496.47,307.47 L 497.13,305.77 L 498.83,302.49 L 499.74,300.89 L 501.83,298.01 L 505.25,294.44 L 505.80,293.98 L 507.09,293.04 L 507.76,292.57 L 509.35,291.58 L 510.19,291.08 L 512.14,290.02 L 513.17,289.48 L 515.55,288.32 L 516.80,287.72 L 519.67,286.42 L 521.17,285.75 L 524.59,284.29 L 526.37,283.53 L 530.41,281.87 L 537.22,279.14 L 540.99,277.64 L 547.97,274.73 L 551.37,273.29 L 557.66,270.48 L 560.72,269.09 L 566.37,266.34 L 569.11,264.97 L 574.16,262.27 L 576.61,260.92 L 581.11,258.23 L 583.29,256.88 L 587.28,254.18 L 589.22,252.83 L 592.76,250.09 L 597.60,245.91 L 598.34,245.22 L 599.60,244.07 L 600.20,243.53 L 601.21,242.65 L 601.70,242.24 L 602.53,241.60 L 602.93,241.31 L 603.62,240.89 L 604.29,240.51 L 605.45,240.25 L 607.34,240.39 L 607.77,240.47 L 608.78,240.86 L 609.30,241.09 L 610.38,241.70 L 613.25,244.01 L 616.00,247.03 L 616.02,356.77 L 616.02,364.31 L 616.04,378.94 L 616.06,386.15 L 616.10,399.86 L 616.11,403.22 L 616.14,409.71 L 616.15,412.92 L 616.19,419.08 L 616.20,422.11 L 616.24,427.89 L 616.26,430.73 L 616.30,436.09 L 616.32,438.72 L 616.36,443.63 L 616.39,446.03 L 616.43,450.44 L 616.46,452.59 L 616.51,456.47 L 616.54,458.34 L 616.59,461.65 L 616.62,463.23 L 616.67,465.92 L 616.70,467.19 L 616.76,469.23 L 616.79,470.17 L 616.85,471.52 L 616.94,472.72 L 617.11,473.92 L 617.69,476.41 L 618.01,477.68 L 618.87,480.28 L 619.79,482.90 L 622.39,488.27 L 623.79,490.94 L 627.21,496.14 L 633.05,503.35 L 640.03,510.82 L 636.26,513.16 L 635.58,513.58 L 633.97,514.27 L 633.12,514.59 L 631.24,515.06 L 629.30,515.47 L 624.97,515.67 L 622.78,515.66 L 618.42,515.00 L 617.35,514.78 L 615.32,514.18 L 612.52,513.05 L 610.94,512.27 L 607.82,510.13 L 606.29,508.98 L 603.40,506.23 L 602.01,504.80 L 599.55,501.66 L 596.55,496.70 L 595.89,495.34 L 594.79,492.85 L 594.28,491.60 L 593.45,488.89 L 593.07,487.45 L 592.48,483.96 L 592.34,483.01 L 592.10,480.86 L 591.99,479.75 L 591.80,477.21 L 591.71,475.89 L 591.56,472.90 L 591.49,471.34 L 591.38,467.82 L 591.33,465.98 L 591.24,461.86 L 591.20,459.72 L 591.14,454.92 L 591.12,452.43 L 591.08,446.90 L 591.06,444.03 L 591.04,437.68 L 591.03,434.40 L 591.02,427.17 L 591.02,415.25 L 591.02,410.97 L 591.00,402.75 L 590.99,398.70 L 590.96,391.08 L 590.94,387.36 L 590.89,380.51 L 590.86,377.19 L 590.80,371.29 L 590.79,369.88 L 590.75,367.26 L 590.73,365.99 L 590.70,363.67 L 590.68,362.55 L 590.64,360.54 L 590.62,359.58 L 590.58,357.91 L 590.56,357.12 L 590.51,355.81 L 590.49,355.20 L 590.45,354.27 L 590.42,353.85 L 590.38,353.32 L 590.31,353.00 L 590.21,353.00 L 589.63,353.43 L 589.28,353.71 L 588.29,354.60 L 587.76,355.09 L 586.50,356.33 L 584.43,358.44 L 583.70,359.21 L 581.76,360.96 L 580.71,361.87 L 578.21,363.87 L 576.89,364.90 L 573.90,367.09 L 572.36,368.21 L 568.99,370.52 L 565.54,372.86 L 557.88,377.65 L 546.00,384.49 L 544.56,385.28 L 541.74,386.88 L 540.36,387.67 L 537.90,389.15 L 536.73,389.86 L 534.89,391.06 L 534.49,391.33 L 533.84,391.79 L 533.15,392.34 L 532.48,392.97 L 531.38,393.96 L 531.12,394.24 L 530.67,394.88 L 530.45,395.23 L 530.06,396.12 L 529.88,396.62 L 529.56,397.90 L 529.41,398.60 L 529.14,400.39 L 529.02,401.36 L 528.81,403.79 L 528.71,405.10 L 528.55,408.31 L 528.47,410.02 L 528.35,414.13 L 528.32,415.21 L 528.27,417.58 L 528.24,418.80 L 528.20,421.44 L 528.18,422.80 L 528.15,425.72 L 528.13,427.22 L 528.10,430.45 L 528.09,432.11 L 528.07,435.65 L 528.06,437.47 L 528.04,441.35 L 528.04,443.34 L 528.02,447.57 L 528.02,449.73 L 528.01,454.33 L 528.01,456.68 L 528.00,461.67 L 528.00,464.21 L 528.00,469.59 L 528.00,472.34 L 528.00,478.14 L 528.00,481.09 L 528.00,487.33 L 528.00,490.50 L 528.00,497.18 L 528.00,507.73 L 528.00,512.03 L 528.00,520.32 L 527.99,524.40 L 527.98,532.26 L 527.98,536.13 L 527.96,543.55 L 527.95,547.20 L 527.93,554.16 L 527.92,557.59 L 527.89,564.09 L 527.88,567.29 L 527.85,573.32 L 527.83,576.28 L 527.79,581.83 L 527.77,584.55 L 527.73,589.62 L 527.71,592.09 L 527.66,596.66 L 527.63,598.88 L 527.58,602.93 L 527.55,604.90 L 527.49,608.44 L 527.46,610.15 L 527.40,613.16 L 527.37,614.60 L 527.30,617.08 L 527.27,618.25 L 527.19,620.18 L 527.16,621.07 L 527.08,622.44 L 526.96,623.87 L 526.71,625.87 L 525.97,629.74 L 525.57,631.65 L 524.52,635.35 L 523.96,637.18 L 522.58,640.74 L 521.86,642.50 L 520.15,645.93 L 519.26,647.62 L 517.21,650.93 L 516.14,652.58 L 513.75,655.79 L 512.50,657.38 L 509.75,660.51 L 505.20,665.13 L 503.43,666.81 L 499.87,669.84 L 498.09,671.29 L 494.48,673.89 L 492.66,675.14 L 488.98,677.31 L 487.12,678.35 L 483.33,680.12 L 481.42,680.96 L 477.50,682.34 L 475.52,682.98 L 471.44,683.97 L 469.38,684.42 L 465.12,685.04 L 458.50,685.57 L 455.44,685.68 L 449.45,685.47 L 448.02,685.39 L 445.40,685.12 L 444.14,684.96 Z" fill="rgba(248,248,249,1)"/>
</g>
</svg>